<!--?xml version="1.0" encoding="utf-8"?-->
<!-- Generator: Adobe Illustrator 19.1.1, SVG Export Plug-In . SVG Version: 6.00 Build 0)  -->
<svg version="1.1" id="_x31_0" xmlns="http://www.w3.org/2000/svg" xmlns:xlink="http://www.w3.org/1999/xlink" x="0px" y="0px" viewBox="0 0 512 512" style="width: 256px; height: 256px; opacity: 1;" xml:space="preserve">
<style type="text/css">
	.st0{fill:#374149;}
</style>
<g>
	<path class="st0" d="M377.19,121.211C377.19,54.375,322.834,0,256.018,0C189.186,0,134.81,54.375,134.81,121.211
		c0,60.539,43.715,110.847,102.797,119.781v9.832h-26.805c-6.062,0-11,4.934-11,10.996v115.528c0,6.066,4.938,10.996,11,10.996
		h26.797h0.008v37.113h-13.27l-10.172,9.75l-14.23,47.015l9.43,29.778h93.27l9.43-29.774l-14.191-47.031l-10.226-9.738h-13.254
		v-37.113h26.847c6.062,0,10.992-4.93,10.992-10.996V261.82c0-6.062-4.93-10.996-10.992-10.996h-26.847v-9.832
		C333.474,232.058,377.19,181.75,377.19,121.211z M292.638,366.344h-26.004h-21.27h-25.969v-93.52h25.969h21.27h26.004V366.344z
		 M256.018,38.309c45.75,0,82.867,37.117,82.867,82.902c0,42.156-31.504,76.984-72.25,82.175c-3.476,0.458-7.027,0.688-10.617,0.688
		c-3.625,0-7.176-0.23-10.653-0.688c-40.746-5.23-72.25-40.058-72.25-82.175C173.115,75.426,210.232,38.309,256.018,38.309z
		 M248.194,445.77l-2.829,2.035l-9.902,7.054l-7.316,5.066l3.355-14.262h13.863h1.699L248.194,445.77z" style="fill: rgb(255, 255, 255);"></path>
	<polygon class="st0" points="245.365,288.328 228.943,288.328 228.943,295.594 228.943,295.617 228.943,295.617 228.943,295.778 
		245.365,295.778 266.634,295.778 283.057,295.778 283.057,288.328 266.634,288.328 	" style="fill: rgb(255, 255, 255);"></polygon>
	<polygon class="st0" points="228.943,309.715 228.943,316.981 228.943,317 228.943,317 228.943,317.16 245.365,317.16 
		259.42,317.16 259.42,309.715 245.365,309.715 	" style="fill: rgb(255, 255, 255);"></polygon>
	<polygon class="st0" points="228.943,331.098 228.943,338.324 228.943,338.344 228.943,338.344 228.943,338.508 245.365,338.508 
		259.42,338.508 259.42,331.098 245.365,331.098 	" style="fill: rgb(255, 255, 255);"></polygon>
	<path class="st0" d="M305.404,135.11h-98.777c-2.766,0-4.626,2.774-3.684,5.371c6.863,18.961,23.602,33.195,44.039,36.484
		c2.945,0.453,5.957,0.715,9.035,0.715c3.078,0,6.09-0.262,9.008-0.715c20.402-3.289,37.168-17.519,44.058-36.477
		C310.029,137.883,308.17,135.11,305.404,135.11z" style="fill: rgb(255, 255, 255);"></path>
	<path class="st0" d="M206.599,107.278h98.836c2.637,0,4.645-2.59,3.758-5.07c-7.794-21.848-28.692-37.465-53.176-37.465
		c-24.512,0-45.387,15.617-53.176,37.465C201.955,104.687,203.962,107.278,206.599,107.278z" style="fill: rgb(255, 255, 255);"></path>
</g>
</svg>
