<svg width="20" height="15" viewBox="0 0 20 15" fill="none" xmlns="http://www.w3.org/2000/svg">
<path d="M15.75 9.86724H4.2625C4.125 9.86724 4.0125 9.96816 4.0125 10.0915L4.00938 11.4371C4.00938 11.5605 4.12188 11.6614 4.25938 11.6614H15.75C15.8875 11.6614 16 11.5605 16 11.4371V10.0915C16 9.96816 15.8875 9.86724 15.75 9.86724ZM15.75 12.5585H4.25313C4.11563 12.5585 4.00313 12.6594 4.00313 12.7828L4 14.1284C4 14.2517 4.1125 14.3527 4.25 14.3527H15.75C15.8875 14.3527 16 14.2517 16 14.1284V12.7828C16 12.6594 15.8875 12.5585 15.75 12.5585ZM15.75 7.17598H4.26875C4.13125 7.17598 4.01875 7.2769 4.01875 7.40025L4.01562 8.74588C4.01562 8.86923 4.12812 8.97015 4.26562 8.97015H15.75C15.8875 8.97015 16 8.86923 16 8.74588V7.40025C16 7.2769 15.8875 7.17598 15.75 7.17598ZM19.0781 3.27927L10.575 0.103026C10.3922 0.0350102 10.1963 0 9.99844 0C9.80057 0 9.60464 0.0350102 9.42188 0.103026L0.921875 3.27927C0.365625 3.48952 0 3.97731 0 4.52117V14.1284C0 14.2517 0.1125 14.3527 0.25 14.3527H2.75C2.8875 14.3527 3 14.2517 3 14.1284V7.17598C3 6.68258 3.45625 6.2789 4.01875 6.2789H15.9812C16.5437 6.2789 17 6.68258 17 7.17598V14.1284C17 14.2517 17.1125 14.3527 17.25 14.3527H19.75C19.8875 14.3527 20 14.2517 20 14.1284V4.52117C20 3.97731 19.6344 3.48952 19.0781 3.27927Z" fill="#828282"/>
</svg>
