<?xml version="1.0" standalone="no"?>
<!DOCTYPE svg PUBLIC "-//W3C//DTD SVG 20010904//EN"
 "http://www.w3.org/TR/2001/REC-SVG-20010904/DTD/svg10.dtd">
<svg version="1.0" xmlns="http://www.w3.org/2000/svg"
 width="1044.000000pt" height="1280.000000pt" viewBox="0 0 1044.000000 1280.000000"
 preserveAspectRatio="xMidYMid meet">
<g transform="translate(0.000000,1280.000000) scale(0.100000,-0.100000)"
fill="#FFFFFF" stroke="none">
<path d="M4900 12794 c-1012 -52 -2364 -312 -3058 -589 -778 -309 -1126 -607
-1280 -1095 -46 -145 -49 -162 -107 -608 -108 -831 -216 -1664 -320 -2462 -58
-448 -112 -864 -120 -923 -13 -93 -15 -487 -15 -2802 l0 -2695 437 -2 438 -3
6 -510 c5 -496 6 -512 28 -580 13 -38 41 -104 62 -146 199 -384 744 -498 1114
-234 124 88 217 222 266 385 22 72 23 92 29 580 l5 505 2837 3 2836 2 5 -492
c5 -558 5 -563 83 -726 177 -368 652 -509 1039 -309 116 60 236 182 292 297
82 168 93 265 93 820 l-1 405 436 3 435 2 0 2691 0 2690 -95 737 c-165 1273
-272 2098 -344 2657 -46 349 -80 573 -96 633 -104 387 -321 663 -700 889 -275
165 -666 327 -1069 443 -710 204 -1509 347 -2321 415 -173 15 -759 27 -915 19z
m2806 -882 c172 -78 263 -325 204 -556 -25 -100 -63 -168 -122 -221 -91 -82
150 -75 -2567 -75 -2761 0 -2481 -10 -2582 90 -40 40 -62 73 -82 122 -113 285
4 611 236 658 23 4 1127 7 2452 6 l2410 -1 51 -23z m1099 -1388 c141 -36 256
-149 296 -289 9 -30 67 -454 289 -2110 66 -495 128 -951 137 -1013 19 -129 12
-194 -31 -288 -29 -64 -114 -152 -177 -184 -102 -53 146 -50 -4089 -50 -4365
0 -4005 -6 -4120 64 -68 41 -143 132 -171 206 -35 88 -30 163 44 695 92 666
112 815 217 1595 149 1112 145 1085 180 1156 34 69 127 164 188 191 100 43
-56 42 3652 42 3156 1 3532 -1 3585 -15z m-7018 -5720 c281 -58 511 -265 599
-539 35 -109 43 -277 20 -392 -115 -568 -768 -824 -1242 -488 -158 113 -279
303 -314 494 -16 89 -13 237 6 323 35 159 147 339 272 440 103 83 262 155 377
171 73 10 212 6 282 -9z m7248 -14 c315 -100 533 -362 563 -679 39 -402 -211
-757 -603 -856 -100 -26 -274 -24 -380 4 -270 71 -479 273 -565 546 -31 100
-38 264 -16 376 64 313 300 552 618 624 94 22 293 14 383 -15z"/>
</g>
</svg>
