<svg width="32" height="13" viewBox="0 0 32 13" fill="none" xmlns="http://www.w3.org/2000/svg">
<path d="M12 11.7129V0.84627C12 0.0938268 13.0218 -0.282986 13.6194 0.249062L19.7222 5.68238C20.0926 6.01219 20.0926 6.54698 19.7222 6.87679L13.6194 12.3101C13.0218 12.8422 12 12.4653 12 11.7129Z" fill="#BDBDBD"/>
<path d="M24 11.7129V0.84627C24 0.0938268 25.0218 -0.282986 25.6194 0.249062L31.7222 5.68238C32.0926 6.01219 32.0926 6.54698 31.7222 6.87679L25.6194 12.3101C25.0218 12.8422 24 12.4653 24 11.7129Z" fill="#BDBDBD"/>
<path d="M0 11.7129V0.84627C0 0.0938268 1.02183 -0.282986 1.61943 0.249062L7.72217 5.68238C8.09261 6.01219 8.09261 6.54698 7.72217 6.87679L1.61943 12.3101C1.02183 12.8422 0 12.4653 0 11.7129Z" fill="#BDBDBD"/>
</svg>
