<svg width="30" height="30" viewBox="0 0 30 30" fill="none" xmlns="http://www.w3.org/2000/svg">
<path d="M15 30C23.2843 30 30 23.2843 30 15C30 6.71573 23.2843 0 15 0C6.71573 0 0 6.71573 0 15C0 23.2843 6.71573 30 15 30Z" fill="#1DA1F2"/>
<path d="M11.5275 22.325C18.18 22.325 21.8175 16.8125 21.8175 12.035C21.8175 11.8775 21.8175 11.72 21.81 11.57C22.515 11.06 23.13 10.4225 23.6175 9.695C22.9725 9.98 22.275 10.175 21.54 10.265C22.29 9.815 22.86 9.11 23.13 8.2625C22.4325 8.675 21.66 8.975 20.835 9.14C20.175 8.435 19.2375 8 18.195 8C16.2 8 14.58 9.62 14.58 11.615C14.58 11.9 14.61 12.1775 14.6775 12.44C11.67 12.29 9.0075 10.85 7.2225 8.66C6.915 9.1925 6.735 9.815 6.735 10.475C6.735 11.7275 7.3725 12.8375 8.3475 13.4825C7.755 13.4675 7.2 13.3025 6.7125 13.0325C6.7125 13.0475 6.7125 13.0625 6.7125 13.0775C6.7125 14.8325 7.9575 16.2875 9.615 16.625C9.315 16.7075 8.9925 16.7525 8.6625 16.7525C8.43 16.7525 8.205 16.73 7.98 16.685C8.4375 18.125 9.7725 19.1675 11.355 19.1975C10.1175 20.165 8.5575 20.7425 6.8625 20.7425C6.57 20.7425 6.285 20.7275 6 20.69C7.5825 21.725 9.4875 22.325 11.5275 22.325Z" fill="white"/>
</svg>
