<svg width="202" height="197" viewBox="0 0 202 197" fill="none" xmlns="http://www.w3.org/2000/svg">
<path d="M67.5641 158.624C67.5641 159.439 66.6274 160.091 65.4464 160.091C64.1024 160.213 63.1657 159.561 63.1657 158.624C63.1657 157.809 64.1024 157.158 65.2835 157.158C66.5052 157.035 67.5641 157.687 67.5641 158.624ZM54.8984 156.791C54.6133 157.606 55.4278 158.543 56.6496 158.787C57.7085 159.194 58.9302 158.787 59.1746 157.972C59.419 157.158 58.6452 156.221 57.4234 155.854C56.3645 155.569 55.1835 155.976 54.8984 156.791ZM72.8992 156.099C71.7181 156.384 70.9036 157.158 71.0258 158.095C71.148 158.909 72.2069 159.439 73.4286 159.154C74.6097 158.869 75.4242 158.095 75.302 157.28C75.1798 156.506 74.0802 155.976 72.8992 156.099ZM99.6968 0C43.2101 0 0 42.8945 0 99.3947C0 144.57 28.4266 183.228 69.0302 196.834C74.2431 197.771 76.0758 194.553 76.0758 191.905C76.0758 189.379 75.9536 175.448 75.9536 166.893C75.9536 166.893 47.4456 173.004 41.4589 154.754C41.4589 154.754 36.8161 142.9 30.1371 139.845C30.1371 139.845 20.8109 133.45 30.7887 133.572C30.7887 133.572 40.9294 134.386 46.5089 144.082C55.4278 159.805 70.3742 155.284 76.198 152.595C77.1347 146.078 79.7819 141.556 82.7141 138.867C59.9484 136.342 36.979 133.042 36.979 93.8546C36.979 82.6524 40.0742 77.0309 46.5903 69.8614C45.5315 67.2136 42.0698 56.2965 47.6492 42.202C56.1609 39.5542 75.75 53.2006 75.75 53.2006C83.8952 50.9194 92.6512 49.7381 101.326 49.7381C110 49.7381 118.756 50.9194 126.902 53.2006C126.902 53.2006 146.491 39.5135 155.002 42.202C160.582 56.3372 157.12 67.2136 156.061 69.8614C162.577 77.0716 166.569 82.6931 166.569 93.8546C166.569 133.164 142.581 136.301 119.815 138.867C123.562 142.085 126.739 148.196 126.739 157.769C126.739 171.497 126.617 188.483 126.617 191.824C126.617 194.471 128.49 197.689 133.662 196.753C174.388 183.228 202 144.57 202 99.3947C202 42.8945 156.183 0 99.6968 0ZM39.5855 140.497C39.056 140.904 39.1782 141.841 39.8706 142.615C40.5222 143.267 41.4589 143.552 41.9883 143.022C42.5177 142.615 42.3956 141.678 41.7032 140.904C41.0516 140.252 40.1149 139.967 39.5855 140.497ZM35.1871 137.197C34.902 137.727 35.3093 138.379 36.1238 138.786C36.7754 139.193 37.5899 139.071 37.875 138.501C38.1601 137.971 37.7528 137.319 36.9383 136.912C36.1238 136.668 35.4722 136.79 35.1871 137.197ZM48.3823 151.699C47.7306 152.229 47.975 153.451 48.9117 154.225C49.8484 155.162 51.0294 155.284 51.5589 154.632C52.0883 154.102 51.844 152.88 51.0294 152.106C50.1335 151.17 48.9117 151.047 48.3823 151.699ZM43.7395 145.711C43.0879 146.118 43.0879 147.177 43.7395 148.114C44.3911 149.051 45.4907 149.459 46.0202 149.051C46.6718 148.522 46.6718 147.463 46.0202 146.526C45.45 145.589 44.3911 145.181 43.7395 145.711Z" fill="white"/>
</svg>
