<svg xmlns="http://www.w3.org/2000/svg" width="30" height="32" fill="none" viewBox="0 0 30 32"><path fill="#F2F2F2" d="M29.6168 19.4348L26.9253 17.8805C27.197 16.4147 27.197 14.9109 26.9253 13.4451L29.6168 11.8909C29.9264 11.7139 30.0654 11.3475 29.9643 11.0063C29.263 8.75704 28.0689 6.72259 26.5083 5.02932C26.2682 4.77028 25.8765 4.7071 25.5732 4.88401L22.8816 6.43828C21.7507 5.46528 20.4492 4.71342 19.0402 4.2206V1.11838C19.0402 0.764558 18.7938 0.454968 18.4463 0.379149C16.1275 -0.138941 13.7519 -0.113668 11.5468 0.379149C11.1993 0.454968 10.9529 0.764558 10.9529 1.11838V4.22692C9.5503 4.72605 8.24876 5.47791 7.11149 6.44459L4.42627 4.89032C4.11668 4.71342 3.73127 4.77028 3.49118 5.03564C1.93059 6.72259 0.736454 8.75704 0.0351366 11.0126C-0.0722723 11.3538 0.0730456 11.7203 0.382636 11.8972L3.07418 13.4514C2.8025 14.9173 2.8025 16.421 3.07418 17.8868L0.382636 19.4411C0.0730456 19.618 -0.0659542 19.9844 0.0351366 20.3256C0.736454 22.5749 1.93059 24.6093 3.49118 26.3026C3.73127 26.5617 4.12299 26.6248 4.42627 26.4479L7.11781 24.8937C8.24876 25.8667 9.5503 26.6185 10.9593 27.1113V30.2199C10.9593 30.5737 11.2057 30.8833 11.5532 30.9591C13.8719 31.4772 16.2476 31.4519 18.4526 30.9591C18.8001 30.8833 19.0465 30.5737 19.0465 30.2199V27.1113C20.4492 26.6122 21.7507 25.8603 22.888 24.8937L25.5795 26.4479C25.8891 26.6248 26.2745 26.568 26.5146 26.3026C28.0752 24.6157 29.2693 22.5812 29.9706 20.3256C30.0654 19.9781 29.9264 19.6117 29.6168 19.4348ZM14.9966 20.7173C12.2103 20.7173 9.94203 18.4491 9.94203 15.6628C9.94203 12.8765 12.2103 10.6083 14.9966 10.6083C17.7829 10.6083 20.0511 12.8765 20.0511 15.6628C20.0511 18.4491 17.7829 20.7173 14.9966 20.7173Z"/></svg>