<svg width="30" height="30" viewBox="0 0 30 30" fill="none" xmlns="http://www.w3.org/2000/svg">
<path d="M15 30C23.2843 30 30 23.2843 30 15C30 6.71573 23.2843 0 15 0C6.71573 0 0 6.71573 0 15C0 23.2843 6.71573 30 15 30Z" fill="#00B900"/>
<path d="M24.975 14.1C24.975 9.625 20.5 6 15 6C9.5 6 5.025 9.625 5.025 14.1C5.025 18.1 8.575 21.45 13.375 22.1C13.7 22.175 14.15 22.325 14.25 22.6C14.35 22.85 14.325 23.25 14.275 23.5C14.275 23.5 14.15 24.2 14.125 24.35C14.075 24.6 13.925 25.325 15 24.9C16.075 24.45 20.75 21.525 22.85 19.1C24.275 17.5 24.975 15.875 24.975 14.1Z" fill="white"/>
<path d="M12.975 11.95H12.275C12.175 11.95 12.075 12.025 12.075 12.15V16.5C12.075 16.6 12.15 16.7 12.275 16.7H12.975C13.075 16.7 13.175 16.625 13.175 16.5V12.125C13.175 12.025 13.075 11.95 12.975 11.95Z" fill="#00B900"/>
<path d="M17.8 11.95H17.1C17 11.95 16.9 12.025 16.9 12.15V14.725L14.9 12.025C14.9 12.025 14.9 12 14.875 12H14.175C14.075 12 13.975 12.075 13.975 12.2V16.55C13.975 16.65 14.05 16.75 14.175 16.75H14.75C14.85 16.75 14.95 16.675 14.95 16.55V13.9L16.95 16.6C16.975 16.625 16.975 16.625 17 16.65C17 16.65 17 16.65 17.025 16.65C17.05 16.65 17.05 16.65 17.075 16.65H17.775C17.875 16.65 17.975 16.575 17.975 16.45V12.125C17.975 12.025 17.9 11.95 17.8 11.95Z" fill="#00B900"/>
<path d="M11.275 15.6H9.375V12.125C9.375 12.025 9.3 11.925 9.175 11.925H8.5C8.4 11.925 8.3 12 8.3 12.125V16.475C8.3 16.525 8.325 16.575 8.35 16.6C8.375 16.625 8.425 16.65 8.475 16.65H11.275C11.375 16.65 11.475 16.575 11.475 16.45V15.75C11.475 15.675 11.4 15.6 11.275 15.6Z" fill="#00B900"/>
<path d="M21.65 13.025C21.75 13.025 21.85 12.95 21.85 12.825V12.125C21.85 12.025 21.775 11.925 21.65 11.925H18.85C18.8 11.925 18.75 11.95 18.725 11.975C18.7 12 18.675 12.05 18.675 12.1V16.45C18.675 16.5 18.7 16.55 18.725 16.575C18.75 16.6 18.8 16.625 18.85 16.625H21.65C21.75 16.625 21.85 16.55 21.85 16.425V15.725C21.85 15.625 21.775 15.525 21.65 15.525H19.75V14.8H21.65C21.75 14.8 21.85 14.725 21.85 14.6V13.9C21.85 13.8 21.775 13.7 21.65 13.7H19.75V12.975H21.65V13.025Z" fill="#00B900"/>
</svg>
