<svg xmlns="http://www.w3.org/2000/svg" width="26" height="25" fill="none" viewBox="0 0 26 25"><path fill="#BDBDBD" d="M22.3768 1.56576L22.5799 5.33635C21.4001 4.0878 19.931 3.08501 18.275 2.39785C16.619 1.71069 14.8159 1.35569 12.9914 1.35757C6.84176 1.35757 1.72199 5.31722 0.624102 10.5515C0.60786 10.6304 0.611162 10.7115 0.633772 10.7891C0.656382 10.8667 0.697746 10.9388 0.754931 11.0005C0.812116 11.0621 0.883721 11.1117 0.964668 11.1458C1.04561 11.1798 1.13392 11.1975 1.22332 11.1975H3.71414C3.85145 11.1973 3.98469 11.1556 4.09226 11.079C4.19982 11.0025 4.2754 10.8956 4.30676 10.7756C4.71297 9.26327 5.60109 7.88968 6.86276 6.82245C8.12442 5.75521 9.70508 5.04048 11.4119 4.76546C13.1187 4.49043 14.8778 4.66701 16.4746 5.27364C18.0714 5.88027 19.4369 6.89073 20.4044 8.18172L15.2521 7.96032C15.1697 7.95681 15.0874 7.96835 15.0101 7.99424C14.9327 8.02013 14.8621 8.05984 14.8024 8.11096C14.7427 8.16208 14.6952 8.22354 14.6628 8.29161C14.6304 8.35968 14.6137 8.43296 14.6138 8.50698V10.6667C14.6138 10.8117 14.678 10.9508 14.7923 11.0533C14.9066 11.1558 15.0616 11.2134 15.2232 11.2134H25.3906C25.5522 11.2134 25.7072 11.1558 25.8215 11.0533C25.9358 10.9508 26 10.8117 26 10.6667V1.53979C26 1.39481 25.9358 1.25577 25.8215 1.15325C25.7072 1.05073 25.5522 0.993134 25.3906 0.993134H22.9851C22.9027 0.993173 22.8211 1.00822 22.7453 1.03735C22.6696 1.06649 22.6012 1.10911 22.5443 1.16265C22.4875 1.21618 22.4433 1.2795 22.4145 1.34879C22.3857 1.41808 22.3728 1.49189 22.3768 1.56576ZM12.9914 20.6729C11.5261 20.674 10.0831 20.3513 8.78996 19.7331C7.49683 19.1149 6.39342 18.2204 5.5773 17.1287L10.7468 17.3506C10.8293 17.3541 10.9116 17.3426 10.9889 17.3167C11.0662 17.2908 11.1369 17.2511 11.1966 17.2C11.2563 17.1488 11.3037 17.0874 11.3362 17.0193C11.3686 16.9512 11.3852 16.878 11.3852 16.8039V14.6446C11.3852 14.4996 11.321 14.3606 11.2067 14.2581C11.0924 14.1556 10.9374 14.098 10.7758 14.098H0.609375C0.447759 14.098 0.292762 14.1556 0.178482 14.2581C0.0642018 14.3606 0 14.4996 0 14.6446L0 23.7707C0 23.9156 0.0642018 24.0547 0.178482 24.1572C0.292762 24.2597 0.447759 24.3173 0.609375 24.3173H3.01387C3.09652 24.3174 3.17833 24.3024 3.25432 24.2733C3.33032 24.2441 3.3989 24.2014 3.4559 24.1477C3.5129 24.094 3.55713 24.0304 3.5859 23.9609C3.61467 23.8914 3.62737 23.8174 3.62324 23.7433L3.4125 19.9818C4.5921 21.2278 6.05998 22.2285 7.71416 22.9143C9.36833 23.6 11.1691 23.9544 12.9914 23.9529C19.1415 23.9529 24.2612 19.9932 25.3591 14.759C25.3754 14.6801 25.3721 14.599 25.3495 14.5214C25.3269 14.4438 25.2855 14.3716 25.2283 14.31C25.1711 14.2483 25.0995 14.1987 25.0186 14.1647C24.9376 14.1306 24.8493 14.113 24.7599 14.113H22.2691C22.1318 14.1131 21.9986 14.1549 21.891 14.2314C21.7834 14.308 21.7078 14.4149 21.6765 14.5348C21.2075 16.2843 20.0957 17.8411 18.5201 18.9546C16.9446 20.0681 14.9971 20.6734 12.9914 20.6729Z"/></svg>