<svg xmlns="http://www.w3.org/2000/svg" width="30" height="27" fill="none" viewBox="0 0 30 27"><path fill="#F2F2F2" d="M27.1875 0H2.8125C1.25918 0 0 1.25918 0 2.8125V23.4375C0 24.9908 1.25918 26.25 2.8125 26.25H27.1875C28.7408 26.25 30 24.9908 30 23.4375V2.8125C30 1.25918 28.7408 0 27.1875 0ZM26.8359 23.4375H3.16406C3.07082 23.4375 2.9814 23.4005 2.91547 23.3345C2.84954 23.2686 2.8125 23.1792 2.8125 23.0859V3.16406C2.8125 3.07082 2.84954 2.9814 2.91547 2.91547C2.9814 2.84954 3.07082 2.8125 3.16406 2.8125H26.8359C26.9292 2.8125 27.0186 2.84954 27.0845 2.91547C27.1505 2.9814 27.1875 3.07082 27.1875 3.16406V23.0859C27.1875 23.1792 27.1505 23.2686 27.0845 23.3345C27.0186 23.4005 26.9292 23.4375 26.8359 23.4375ZM24.375 18.0469V19.4531C24.375 19.8414 24.0602 20.1562 23.6719 20.1562H11.9531C11.5648 20.1562 11.25 19.8414 11.25 19.4531V18.0469C11.25 17.6586 11.5648 17.3438 11.9531 17.3438H23.6719C24.0602 17.3438 24.375 17.6586 24.375 18.0469ZM24.375 12.4219V13.8281C24.375 14.2164 24.0602 14.5312 23.6719 14.5312H11.9531C11.5648 14.5312 11.25 14.2164 11.25 13.8281V12.4219C11.25 12.0336 11.5648 11.7188 11.9531 11.7188H23.6719C24.0602 11.7188 24.375 12.0336 24.375 12.4219ZM24.375 6.79688V8.20312C24.375 8.59143 24.0602 8.90625 23.6719 8.90625H11.9531C11.5648 8.90625 11.25 8.59143 11.25 8.20312V6.79688C11.25 6.40857 11.5648 6.09375 11.9531 6.09375H23.6719C24.0602 6.09375 24.375 6.40857 24.375 6.79688ZM9.60938 7.5C9.60938 8.66496 8.66496 9.60938 7.5 9.60938C6.33504 9.60938 5.39062 8.66496 5.39062 7.5C5.39062 6.33504 6.33504 5.39062 7.5 5.39062C8.66496 5.39062 9.60938 6.33504 9.60938 7.5ZM9.60938 13.125C9.60938 14.29 8.66496 15.2344 7.5 15.2344C6.33504 15.2344 5.39062 14.29 5.39062 13.125C5.39062 11.96 6.33504 11.0156 7.5 11.0156C8.66496 11.0156 9.60938 11.96 9.60938 13.125ZM9.60938 18.75C9.60938 19.915 8.66496 20.8594 7.5 20.8594C6.33504 20.8594 5.39062 19.915 5.39062 18.75C5.39062 17.585 6.33504 16.6406 7.5 16.6406C8.66496 16.6406 9.60938 17.585 9.60938 18.75Z"/></svg>