<svg width="17" height="42" viewBox="0 0 17 42" fill="none" xmlns="http://www.w3.org/2000/svg">
<path d="M9.02368 21.9027H10.9841V21.1725H9.02368H7.00113H5.06419H5.05862H5.04388V21.9027H7.00113H9.02368Z" fill="#828282"/>
<path d="M8.38696 24.0074V23.2776H7.00113H5.04388V24.0074H7.00113H8.38696Z" fill="#828282"/>
<path d="M8.38696 26.1123V25.3822H7.00113H5.04388V26.1123H7.00113H8.38696Z" fill="#828282"/>
<path d="M15.5928 9.40408H0.435432C0.148022 9.40408 -0.0688604 9.65498 0.0202645 9.89992C1.01978 12.6393 3.71859 14.6854 7.00103 15.0364C7.33202 15.0723 7.67037 15.0921 8.01213 15.0921C8.35399 15.0921 8.69225 15.0722 9.02359 15.0364C12.3057 14.6854 15.008 12.6393 16.0075 9.89992C16.0971 9.65498 15.8798 9.40408 15.5928 9.40408Z" fill="#828282"/>
<path d="M0.436252 5.68741H15.5935C15.8806 5.68741 16.0976 5.43707 16.0081 5.19214C14.9047 2.17644 11.7405 0 8.01296 0C4.28588 0 1.12481 2.17644 0.0218019 5.19222C-0.0679521 5.43715 0.148842 5.68741 0.436252 5.68741Z" fill="#828282"/>
<path d="M13.2663 17.9159H9.38549V16.2511L9.38684 16.0684H9.38549V16.0555L8.98641 16.0949C8.33792 16.1582 7.68367 16.1582 7.03518 16.0949L6.6874 16.0605L6.65056 16.0559V16.0571L6.63619 16.0555V17.9159H2.75539C2.52306 17.9159 2.33456 18.085 2.33456 18.2934V30.202C2.33456 30.4104 2.52306 30.5795 2.75539 30.5795H6.62675H6.63628V35.2529H5.14928L4.35856 35.9294L3.06751 39.7626L3.48932 40.961C3.55347 41.1424 3.74098 41.2659 3.95328 41.2659H12.076C12.288 41.2659 12.4758 41.1425 12.5396 40.961L12.9618 39.7626L11.6707 35.9294L10.88 35.2529H9.38558V30.5794H13.2738C13.5062 30.5794 13.6942 30.4104 13.6942 30.2019V18.2999C13.6941 18.0888 13.5018 17.9159 13.2663 17.9159ZM7.26572 36.6555L6.99862 36.8277L6.06227 37.4262L5.3631 37.8613L5.67863 36.6454H6.55739L7.26572 36.6555ZM12.0331 28.8551H3.99559V19.6469H12.0331V28.8551Z" fill="#828282"/>
</svg>
