<svg xmlns="http://www.w3.org/2000/svg" width="395" height="68" fill="none" viewBox="0 0 395 68"><path stroke="#333" stroke-width="3" d="M98.593 7.38585C95.7227 2.12843 90.0952 1.69031 87.6403 2.12843C79.7719 2.50396 62.1468 3.36768 54.5931 3.81831C45.1511 4.38161 35.8979 5.13266 30.4215 6.63478C24.4222 8.28033 19.8464 11.1411 21.3571 20.3416L22.7375 28.4155M98.593 7.38585C96.1381 7.38585 91.1905 7.38585 91.0394 7.38585C90.8506 7.38585 90.284 7.19808 90.284 8.32467C90.284 9.22594 90.284 20.4668 90.284 25.9746H103.871M98.593 7.38585C101.048 11.8827 102.941 20.5463 103.871 25.9746M104.258 28.4155C106.147 29.7299 106.978 33.1096 104.258 34.6118M104.258 28.4155C102.462 29.1386 99.4182 31.0146 101.615 32.7341C103.811 34.4536 101.774 34.7649 100.481 34.7056M104.258 28.4155C104.201 28.0171 104.134 27.5767 104.058 27.1012M104.258 34.6118C105.165 36.8649 104.51 39.3059 104.069 40.2447H96.5158L95.1939 39.3059M104.258 34.6118L100.481 34.7056M95.1939 39.3059H90.284M95.1939 39.3059V36.3016L96.7046 34.7995L100.481 34.7056M90.284 39.3059C90.284 39.3059 89.5287 44 85.1853 44C81.0308 44 79.7997 39.3059 79.7997 39.3059M90.284 39.3059C90.284 32.3586 79.7997 32.5463 79.7997 39.3059M79.7997 39.3059H43.0738C43.0738 39.3059 42.1296 43.6245 37.9751 43.6245C33.8206 43.6245 32.8764 39.1181 32.8764 39.1181H32.6875M22.7375 28.4155L24.5674 39.1181L28.5331 39.1181H30.6103H32.6875M22.7375 28.4155L104.058 27.1012M104.058 27.1012C104.001 26.7445 103.939 26.368 103.871 25.9746M32.6875 39.1181C34.7648 32.5463 41.5631 33.1096 43.0738 39.1181M13.3754 20.3416L3.00946 14.3333M13.3754 28.4155H0M13.3754 36.3016L3.00946 40.3016"/><path fill="#333" d="M161.22 31.1059C161.277 33.1299 160.954 34.8676 160.252 36.3188C159.55 37.77 158.591 38.9921 157.376 39.9851C156.18 40.9589 154.775 41.7418 153.162 42.3337C151.567 42.9448 149.887 43.4031 148.122 43.7086C146.375 44.0332 144.61 44.2433 142.825 44.3387C141.041 44.4342 139.37 44.4819 137.814 44.4819C136.238 44.4819 134.482 44.4342 132.546 44.3387C130.629 44.2623 128.521 44.1287 126.224 43.9377L125 2.23412C126.974 1.87132 128.892 1.60399 130.752 1.43213C132.612 1.24118 134.273 1.10751 135.735 1.03113C137.444 0.954753 139.057 0.92611 140.576 0.945205C142.019 0.983396 143.471 1.06932 144.933 1.20299C146.394 1.33665 147.789 1.56579 149.118 1.89041C150.466 2.19593 151.719 2.62557 152.877 3.17933C154.035 3.73308 155.041 4.4396 155.895 5.29888C156.75 6.15816 157.424 7.19884 157.917 8.42092C158.411 9.62391 158.657 11.0465 158.657 12.6887C158.657 14.8273 158.268 16.6604 157.49 18.188C156.712 19.6966 155.696 20.9473 154.443 21.9402C155.24 22.2076 155.952 22.5417 156.579 22.9427C157.205 23.3246 157.746 23.7543 158.202 24.2316C158.676 24.709 159.075 25.215 159.398 25.7497C159.74 26.2653 160.024 26.7808 160.252 27.2964C160.765 28.4803 161.087 29.7501 161.22 31.1059ZM140.69 6.15816C139.798 6.15816 138.829 6.1868 137.785 6.24408C136.893 6.28227 135.868 6.35865 134.71 6.47323C133.571 6.5878 132.356 6.74056 131.065 6.93151L131.521 21.5392C133.153 21.501 134.634 21.4533 135.963 21.396C137.311 21.3196 138.469 21.2528 139.437 21.1955C140.576 21.1191 141.591 21.0428 142.484 20.9664C143.888 20.89 145.227 20.6609 146.499 20.279C147.789 19.878 148.91 19.3337 149.859 18.6463C150.808 17.9589 151.539 17.1187 152.051 16.1258C152.583 15.1328 152.782 13.9871 152.649 12.6887C152.535 11.7339 152.27 10.9033 151.852 10.1968C151.453 9.47115 150.941 8.86011 150.314 8.36364C149.707 7.84807 149.004 7.43753 148.207 7.132C147.429 6.80739 146.613 6.5687 145.758 6.41594C144.923 6.24408 144.069 6.14861 143.196 6.12951C142.322 6.09132 141.487 6.10087 140.69 6.15816ZM146.1 25.5778C145.625 25.616 145.208 25.6542 144.847 25.6924C144.505 25.7115 144.202 25.7306 143.936 25.7497C143.689 25.7688 143.461 25.7879 143.252 25.807C143.063 25.8261 142.882 25.8356 142.711 25.8356C141.667 25.9311 140.547 26.017 139.351 26.0934C138.326 26.1698 137.149 26.2557 135.821 26.3512C134.492 26.4276 133.115 26.5039 131.692 26.5803L132.119 39.269C132.65 39.3072 133.172 39.3263 133.685 39.3263C134.197 39.3263 134.7 39.3263 135.194 39.3263C136.086 39.3263 137.206 39.3263 138.554 39.3263C139.921 39.3072 141.345 39.2403 142.825 39.1258C144.325 38.9921 145.815 38.7725 147.296 38.467C148.796 38.1424 150.134 37.6841 151.311 37.0922C152.507 36.4811 153.456 35.6982 154.158 34.7435C154.88 33.7887 155.212 32.5953 155.155 31.1631C154.984 30.132 154.548 29.2059 153.845 28.3848C153.541 28.0411 153.162 27.6974 152.706 27.3537C152.27 27.01 151.738 26.714 151.112 26.4658C150.485 26.1984 149.754 25.9884 148.919 25.8356C148.103 25.6638 147.163 25.5778 146.1 25.5778Z"/><path fill="#333" d="M189.496 44.3674L189.382 36.1469C188.756 37.2736 188.044 38.3429 187.246 39.3549C186.449 40.3479 185.585 41.2262 184.655 41.99C183.725 42.7347 182.728 43.3267 181.665 43.7659C180.621 44.2051 179.52 44.4056 178.362 44.3674C176.654 44.3101 175.182 43.9855 173.949 43.3935C172.734 42.8016 171.708 42.0187 170.873 41.0448C170.038 40.0519 169.364 38.9157 168.852 37.6364C168.358 36.3379 167.978 34.9726 167.713 33.5405C167.447 32.1083 167.266 30.6476 167.171 29.1582C167.096 27.6496 167.058 26.1889 167.058 24.7758C167.058 22.79 167.143 20.785 167.314 18.7609C167.485 16.7177 167.731 14.6364 168.054 12.5168L173.892 12.6887C173.588 15.0565 173.379 17.1856 173.265 19.076C173.17 20.9664 173.123 22.6276 173.123 24.0598C173.123 24.709 173.132 25.5301 173.151 26.523C173.17 27.516 173.237 28.5758 173.351 29.7024C173.483 30.8099 173.683 31.9078 173.949 32.9963C174.214 34.0847 174.584 35.0585 175.059 35.9178C175.553 36.758 176.17 37.4072 176.91 37.8655C177.65 38.3238 178.561 38.4765 179.644 38.3238C181.105 38.1137 182.624 37.1017 184.2 35.2877C185.794 33.4736 187.465 30.6858 189.211 26.924C189.154 23.8879 189.097 21.4628 189.04 19.6488C189.002 17.8348 188.974 16.4504 188.955 15.4956C188.917 14.369 188.888 13.5861 188.869 13.1469L194.992 12.4595C195.105 15.7439 195.2 18.7132 195.276 21.3674C195.371 24.0025 195.457 26.3798 195.533 28.4994C195.609 30.5998 195.665 32.4521 195.703 34.056C195.76 35.6409 195.808 37.0158 195.846 38.1806C195.922 40.9112 195.969 42.9352 195.988 44.2528L189.496 44.3674Z"/><path fill="#333" d="M230.215 36.0324C230.215 37.8464 229.845 39.374 229.105 40.6152C228.383 41.8373 227.406 42.8302 226.172 43.594C224.957 44.3769 223.552 44.9498 221.957 45.3126C220.382 45.6945 218.74 45.9236 217.031 46C215.285 45.9809 213.519 45.7995 211.735 45.4558C210.976 45.3221 210.169 45.1312 209.314 44.8829C208.479 44.6538 207.625 44.3674 206.752 44.0237C205.879 43.6799 205.005 43.2694 204.132 42.792C203.259 42.3147 202.424 41.7609 201.626 41.1308L204.388 36.7771C205.432 37.3308 206.495 37.8655 207.578 38.3811C208.679 38.8966 209.799 39.3549 210.938 39.7559C212.077 40.1378 213.244 40.4433 214.44 40.6725C215.636 40.9016 216.87 41.0162 218.142 41.0162C219.186 41.0162 220.069 40.9207 220.79 40.7298C221.511 40.5197 222.1 40.2715 222.555 39.9851C223.03 39.6795 223.391 39.3454 223.637 38.9826C223.903 38.6007 224.093 38.2379 224.207 37.8941C224.302 37.5886 224.34 37.2545 224.321 36.8917C224.302 36.5098 224.197 36.1279 224.008 35.746C223.837 35.3641 223.561 34.9917 223.182 34.6289C222.821 34.247 222.337 33.9128 221.73 33.6264C221.122 33.3209 220.382 33.0726 219.509 32.8817C218.635 32.6907 217.601 32.5666 216.405 32.5093C214.696 32.433 213.045 32.2611 211.45 31.9938C209.874 31.7073 208.46 31.2682 207.207 30.6762C205.973 30.0843 204.948 29.3109 204.132 28.3562C203.335 27.3823 202.851 26.1698 202.68 24.7186C202.547 23.3437 202.632 22.093 202.936 20.9664C203.259 19.8207 203.733 18.7991 204.36 17.9016C205.005 17.0042 205.793 16.2213 206.723 15.5529C207.653 14.8655 208.669 14.3022 209.77 13.863C210.871 13.4047 212.029 13.0706 213.244 12.8605C214.478 12.6314 215.721 12.5168 216.974 12.5168C217.715 12.5168 218.588 12.555 219.594 12.6314C220.6 12.7078 221.654 12.8605 222.755 13.0897C223.856 13.3188 224.966 13.653 226.086 14.0922C227.206 14.5122 228.25 15.0755 229.219 15.7821L227.254 21.0237C226.001 20.3553 224.805 19.8398 223.666 19.477C222.546 19.0951 221.549 18.7991 220.676 18.589C219.651 18.3599 218.692 18.2071 217.8 18.1308C214.82 17.9589 212.494 18.274 210.824 19.076C209.172 19.878 208.346 21.0905 208.346 22.7136C208.346 23.8593 208.66 24.6995 209.286 25.2341C209.912 25.7497 210.767 26.122 211.849 26.3512C212.931 26.5803 214.193 26.7331 215.636 26.8095C217.079 26.8858 218.616 27.0482 220.249 27.2964C222.109 27.5828 223.675 28.0125 224.947 28.5853C226.219 29.1582 227.244 29.8265 228.023 30.5903C228.801 31.3541 229.361 32.2038 229.703 33.1395C230.044 34.056 230.215 35.0203 230.215 36.0324Z"/><path fill="#333" d="M266.293 0.945205L266.179 6.41594L252.881 6.93151L253.28 43.0785L246.987 43.193V7.16065L233.518 7.70486L233.404 1.66127L266.293 0.945205Z"/><path fill="#333" d="M279.221 4.12453C279.221 4.67829 279.107 5.2034 278.879 5.69988C278.67 6.19635 278.376 6.62599 277.996 6.98879C277.636 7.3516 277.208 7.63802 276.715 7.84807C276.221 8.05812 275.69 8.16314 275.12 8.16314C274.57 8.16314 274.048 8.05812 273.554 7.84807C273.08 7.63802 272.652 7.3516 272.273 6.98879C271.912 6.62599 271.627 6.19635 271.418 5.69988C271.21 5.2034 271.105 4.67829 271.105 4.12453C271.105 3.55168 271.21 3.01702 271.418 2.52055C271.627 2.02408 271.912 1.59444 272.273 1.23163C272.652 0.84973 273.08 0.553757 273.554 0.343711C274.048 0.11457 274.57 0 275.12 0C275.69 0 276.221 0.11457 276.715 0.343711C277.208 0.553757 277.636 0.84973 277.996 1.23163C278.376 1.59444 278.67 2.02408 278.879 2.52055C279.107 3.01702 279.221 3.55168 279.221 4.12453ZM277.882 14.2067C277.825 16.9373 277.768 19.4483 277.711 21.7397C277.673 24.012 277.636 26.0839 277.598 27.9552C277.56 29.8265 277.522 31.5068 277.484 32.9963C277.465 34.4666 277.446 35.7555 277.427 36.863C277.37 39.4981 277.341 41.5699 277.341 43.0785H271.504C271.542 41.0162 271.589 38.5625 271.646 35.7173C271.684 33.2731 271.732 30.2848 271.789 26.7522C271.865 23.2196 271.931 19.1142 271.988 14.4359L277.882 14.2067Z"/><path fill="#333" d="M292.034 20.1357C292.642 19.3719 293.278 18.589 293.942 17.787C294.626 16.966 295.356 16.2213 296.135 15.5529C296.932 14.8846 297.786 14.3404 298.698 13.9203C299.628 13.4811 300.653 13.2615 301.773 13.2615C302.57 13.2615 303.339 13.3952 304.079 13.6625C304.82 13.9108 305.494 14.3022 306.101 14.8369C306.708 15.3715 307.221 16.0589 307.639 16.8991C308.056 17.7202 308.322 18.7036 308.436 19.8493C309.024 19.1046 309.641 18.3504 310.287 17.5865C310.951 16.8037 311.663 16.0971 312.422 15.467C313.201 14.8178 314.036 14.2927 314.928 13.8917C315.821 13.4716 316.808 13.2615 317.89 13.2615C318.725 13.2615 319.541 13.4047 320.339 13.6912C321.136 13.9776 321.838 14.4263 322.446 15.0374C323.072 15.6293 323.585 16.4027 323.983 17.3574C324.382 18.2931 324.6 19.4101 324.638 20.7086C324.752 22.1025 324.857 23.8593 324.951 25.9788C325.046 27.7929 325.122 30.1034 325.179 32.9103C325.255 35.6982 325.293 39.0494 325.293 42.9639L319.342 43.2503C319.342 39.775 319.332 36.8057 319.313 34.3425C319.294 31.8601 319.275 29.8074 319.256 28.1843C319.219 26.2939 319.19 24.7281 319.171 23.4869C319.114 21.9211 318.858 20.7563 318.402 19.9925C317.966 19.2287 317.387 18.8468 316.665 18.8468C316.191 18.8468 315.707 18.99 315.213 19.2765C314.738 19.5629 314.254 19.9352 313.761 20.3935C313.286 20.8518 312.812 21.3769 312.337 21.9689C311.881 22.5608 311.445 23.1623 311.027 23.7733C310.61 24.3844 310.211 24.9763 309.831 25.5492C309.452 26.122 309.119 26.6281 308.835 27.0672C308.873 27.9074 308.911 28.8335 308.949 29.8456C308.986 30.8576 309.015 32.0033 309.034 33.2827C309.072 34.5621 309.091 35.9942 309.091 37.5791C309.11 39.164 309.119 40.9589 309.119 42.9639L303.595 43.2503C303.595 39.775 303.557 36.8057 303.481 34.3425C303.424 31.8601 303.358 29.8074 303.282 28.1843C303.206 26.2939 303.111 24.7281 302.997 23.4869C302.94 21.9211 302.684 20.7563 302.228 19.9925C301.792 19.2287 301.213 18.8468 300.491 18.8468C299.998 18.8468 299.495 19.0091 298.982 19.3337C298.47 19.6584 297.948 20.0785 297.416 20.594C296.904 21.1096 296.401 21.7015 295.907 22.3699C295.413 23.0191 294.939 23.6779 294.483 24.3462C294.028 25.0145 293.6 25.6542 293.202 26.2653C292.803 26.8763 292.452 27.411 292.148 27.8692L292.405 42.9639L286.738 43.2503L285.969 12.4595L291.92 11.8007L292.034 20.1357Z"/><path fill="#333" d="M347.02 39.67C348.026 39.67 349.022 39.5172 350.009 39.2117C350.997 38.8871 351.908 38.4288 352.743 37.8369C353.578 37.2258 354.3 36.4716 354.907 35.5741C355.534 34.6766 355.989 33.6359 356.274 32.4521L361.77 33.5691C361.238 35.3068 360.488 36.8821 359.52 38.2951C358.552 39.7082 357.422 40.9207 356.132 41.9328C354.841 42.9448 353.417 43.7277 351.86 44.2814C350.323 44.8352 348.709 45.1121 347.02 45.1121C344.514 45.1121 342.293 44.7302 340.356 43.9664C338.42 43.2026 336.788 42.1237 335.459 40.7298C334.13 39.3358 333.114 37.6555 332.412 35.6887C331.729 33.7219 331.387 31.5259 331.387 29.1009C331.387 26.714 331.785 24.4894 332.583 22.4271C333.399 20.3458 334.51 18.5413 335.914 17.0137C337.319 15.4861 338.971 14.2831 340.869 13.4047C342.767 12.5264 344.818 12.0872 347.02 12.0872C348.994 12.0872 350.854 12.4786 352.601 13.2615C354.347 14.0253 355.894 15.0946 357.242 16.4695C358.59 17.8252 359.7 19.4292 360.574 21.2814C361.447 23.1337 361.997 25.1386 362.225 27.2964L337.566 30.9913C337.699 32.347 338.031 33.5691 338.563 34.6575C339.094 35.7269 339.768 36.6339 340.584 37.3786C341.42 38.1233 342.378 38.6961 343.46 39.0971C344.561 39.479 345.748 39.67 347.02 39.67ZM354.879 23.6015L354.708 23.0573C353.986 21.1669 352.99 19.687 351.718 18.6177C350.465 17.5484 348.899 17.0137 347.02 17.0137C346.222 17.0137 345.349 17.1569 344.4 17.4433C343.451 17.7107 342.53 18.1785 341.638 18.8468C340.746 19.5152 339.939 20.4126 339.217 21.5392C338.515 22.6467 338.022 24.0311 337.737 25.6924L354.879 23.6015Z"/><path fill="#333" d="M389.39 26.1793C389.371 25.2437 389.286 24.4321 389.134 23.7447C389.001 23.0573 388.821 22.4653 388.593 21.9689C388.384 21.4724 388.138 21.0619 387.853 20.7372C387.587 20.4126 387.312 20.1453 387.027 19.9352C386.363 19.4579 385.613 19.2287 384.777 19.2478C384.246 19.3242 383.676 19.5533 383.069 19.9352C382.48 20.298 381.873 20.7754 381.247 21.3674C380.62 21.9402 379.984 22.599 379.339 23.3437C378.712 24.0693 378.105 24.8236 377.516 25.6065C376.928 26.3703 376.368 27.1341 375.836 27.8979C375.305 28.6617 374.83 29.3587 374.413 29.9888C374.432 31.4209 374.46 32.834 374.498 34.2279C374.536 35.6027 374.564 36.8917 374.583 38.0946C374.621 39.2785 374.659 40.3574 374.697 41.3313C374.754 42.286 374.811 43.0594 374.868 43.6513L368.746 44.4247C368.632 41.1403 368.528 38.171 368.433 35.5168C368.338 32.8435 368.252 30.4566 368.177 28.3562C368.101 26.2557 368.034 24.4035 367.977 22.7995C367.939 21.1955 367.901 19.8111 367.863 18.6463C367.787 15.9157 367.73 13.8917 367.692 12.5741L374.185 12.4595C374.204 13.6243 374.213 14.8178 374.213 16.0399C374.232 17.2428 374.251 18.3504 374.27 19.3624C374.289 20.5463 374.299 21.7015 374.299 22.8281C374.849 21.9498 375.514 20.9855 376.292 19.9352C377.089 18.885 377.981 17.8921 378.969 16.9564C379.975 16.0208 381.066 15.2092 382.243 14.5218C383.439 13.8153 384.711 13.3761 386.059 13.2042C387.578 13.1279 388.963 13.4525 390.216 14.1781C390.748 14.4836 391.27 14.8941 391.782 15.4097C392.314 15.9062 392.798 16.5554 393.235 17.3574C393.69 18.1403 394.07 19.0855 394.374 20.193C394.677 21.2814 394.886 22.5704 395 24.0598L389.39 26.1793Z"/><path fill="#333" d="M80.2676 63.7012C80.2637 63.5098 80.2461 63.3438 80.2148 63.2031C80.1875 63.0625 80.1504 62.9414 80.1035 62.8398C80.0605 62.7383 80.0098 62.6543 79.9512 62.5879C79.8965 62.5215 79.8398 62.4668 79.7812 62.4238C79.6445 62.3262 79.4902 62.2793 79.3184 62.2832C79.209 62.2988 79.0918 62.3457 78.9668 62.4238C78.8457 62.498 78.7207 62.5957 78.5918 62.7168C78.4629 62.834 78.332 62.9688 78.1992 63.1211C78.0703 63.2695 77.9453 63.4238 77.8242 63.584C77.7031 63.7402 77.5879 63.8965 77.4785 64.0527C77.3691 64.209 77.2715 64.3516 77.1855 64.4805C77.1895 64.7734 77.1953 65.0625 77.2031 65.3477C77.2109 65.6289 77.2168 65.8926 77.2207 66.1387C77.2285 66.3809 77.2363 66.6016 77.2441 66.8008C77.2559 66.9961 77.2676 67.1543 77.2793 67.2754L76.0195 67.4336C75.9961 66.7617 75.9746 66.1543 75.9551 65.6113C75.9355 65.0645 75.918 64.5762 75.9023 64.1465C75.8867 63.7168 75.873 63.3379 75.8613 63.0098C75.8535 62.6816 75.8457 62.3984 75.8379 62.1602C75.8223 61.6016 75.8105 61.1875 75.8027 60.918L77.1387 60.8945C77.1426 61.1328 77.1445 61.377 77.1445 61.627C77.1484 61.873 77.1523 62.0996 77.1562 62.3066C77.1602 62.5488 77.1621 62.7852 77.1621 63.0156C77.2754 62.8359 77.4121 62.6387 77.5723 62.4238C77.7363 62.209 77.9199 62.0059 78.123 61.8145C78.3301 61.623 78.5547 61.457 78.7969 61.3164C79.043 61.1719 79.3047 61.082 79.582 61.0469C79.8945 61.0312 80.1797 61.0977 80.4375 61.2461C80.5469 61.3086 80.6543 61.3926 80.7598 61.498C80.8691 61.5996 80.9688 61.7324 81.0586 61.8965C81.1523 62.0566 81.2305 62.25 81.293 62.4766C81.3555 62.6992 81.3984 62.9629 81.4219 63.2676L80.2676 63.7012Z"/><path fill="#333" d="M85.2012 66.4609C85.4082 66.4609 85.6133 66.4297 85.8164 66.3672C86.0195 66.3008 86.207 66.207 86.3789 66.0859C86.5508 65.9609 86.6992 65.8066 86.8242 65.623C86.9531 65.4395 87.0469 65.2266 87.1055 64.9844L88.2363 65.2129C88.127 65.5684 87.9727 65.8906 87.7734 66.1797C87.5742 66.4688 87.3418 66.7168 87.0762 66.9238C86.8105 67.1309 86.5176 67.291 86.1973 67.4043C85.8809 67.5176 85.5488 67.5742 85.2012 67.5742C84.6855 67.5742 84.2285 67.4961 83.8301 67.3398C83.4316 67.1836 83.0957 66.9629 82.8223 66.6777C82.5488 66.3926 82.3398 66.0488 82.1953 65.6465C82.0547 65.2441 81.9844 64.7949 81.9844 64.2988C81.9844 63.8105 82.0664 63.3555 82.2305 62.9336C82.3984 62.5078 82.627 62.1387 82.916 61.8262C83.2051 61.5137 83.5449 61.2676 83.9355 61.0879C84.3262 60.9082 84.748 60.8184 85.2012 60.8184C85.6074 60.8184 85.9902 60.8984 86.3496 61.0586C86.709 61.2148 87.0273 61.4336 87.3047 61.7148C87.582 61.9922 87.8105 62.3203 87.9902 62.6992C88.1699 63.0781 88.2832 63.4883 88.3301 63.9297L83.2559 64.6855C83.2832 64.9629 83.3516 65.2129 83.4609 65.4355C83.5703 65.6543 83.709 65.8398 83.877 65.9922C84.0488 66.1445 84.2461 66.2617 84.4688 66.3438C84.6953 66.4219 84.9395 66.4609 85.2012 66.4609ZM86.8184 63.1738L86.7832 63.0625C86.6348 62.6758 86.4297 62.373 86.168 62.1543C85.9102 61.9355 85.5879 61.8262 85.2012 61.8262C85.0371 61.8262 84.8574 61.8555 84.6621 61.9141C84.4668 61.9688 84.2773 62.0645 84.0938 62.2012C83.9102 62.3379 83.7441 62.5215 83.5957 62.752C83.4512 62.9785 83.3496 63.2617 83.291 63.6016L86.8184 63.1738Z"/><path fill="#333" d="M91.0898 59.1895C91.0898 59.3027 91.0664 59.4102 91.0195 59.5117C90.9766 59.6133 90.916 59.7012 90.8379 59.7754C90.7637 59.8496 90.6758 59.9082 90.5742 59.9512C90.4727 59.9941 90.3633 60.0156 90.2461 60.0156C90.1328 60.0156 90.0254 59.9941 89.9238 59.9512C89.8262 59.9082 89.7383 59.8496 89.6602 59.7754C89.5859 59.7012 89.5273 59.6133 89.4844 59.5117C89.4414 59.4102 89.4199 59.3027 89.4199 59.1895C89.4199 59.0723 89.4414 58.9629 89.4844 58.8613C89.5273 58.7598 89.5859 58.6719 89.6602 58.5977C89.7383 58.5195 89.8262 58.459 89.9238 58.416C90.0254 58.3691 90.1328 58.3457 90.2461 58.3457C90.3633 58.3457 90.4727 58.3691 90.5742 58.416C90.6758 58.459 90.7637 58.5195 90.8379 58.5977C90.916 58.6719 90.9766 58.7598 91.0195 58.8613C91.0664 58.9629 91.0898 59.0723 91.0898 59.1895ZM90.8145 61.252C90.8027 61.8105 90.791 62.3242 90.7793 62.793C90.7715 63.2578 90.7637 63.6816 90.7559 64.0645C90.748 64.4473 90.7402 64.791 90.7324 65.0957C90.7285 65.3965 90.7246 65.6602 90.7207 65.8867C90.709 66.4258 90.7031 66.8496 90.7031 67.1582H89.502C89.5098 66.7363 89.5195 66.2344 89.5312 65.6523C89.5391 65.1523 89.5488 64.541 89.5605 63.8184C89.5762 63.0957 89.5898 62.2559 89.6016 61.2988L90.8145 61.252Z"/><path fill="#333" d="M100.295 61.082L99.1289 67.2051L97.3887 67.252L96.3574 62.9453L94.9395 67.0469L93.1875 67.1816L92.0508 61.1055L93.2578 61.0117L94.1484 65.9336L95.8887 61.0117L97.0137 61.082L98.2031 66.0625L98.9941 61.0352L100.295 61.082Z"/><path fill="#333" d="M106.078 67.3691L106.16 66.543C105.684 66.8477 105.215 67.0684 104.754 67.2051C104.297 67.3418 103.869 67.4102 103.471 67.4102C103.189 67.4102 102.916 67.373 102.65 67.2988C102.389 67.2285 102.156 67.1191 101.953 66.9707C101.754 66.8184 101.592 66.627 101.467 66.3965C101.346 66.1621 101.285 65.8867 101.285 65.5703C101.285 65.2539 101.332 64.9707 101.426 64.7207C101.52 64.4707 101.648 64.25 101.812 64.0586C101.977 63.8672 102.17 63.7031 102.393 63.5664C102.615 63.4297 102.854 63.3184 103.107 63.2324C103.365 63.1465 103.635 63.084 103.916 63.0449C104.197 63.002 104.477 62.9805 104.754 62.9805C105.012 62.9805 105.252 62.9902 105.475 63.0098C105.697 63.0293 105.895 63.0547 106.066 63.0859C106.016 62.8906 105.953 62.6992 105.879 62.5117C105.805 62.3203 105.709 62.1504 105.592 62.002C105.479 61.8496 105.338 61.7266 105.17 61.6328C105.002 61.5391 104.801 61.4922 104.566 61.4922C104.414 61.4922 104.24 61.5156 104.045 61.5625C103.85 61.6055 103.635 61.6855 103.4 61.8027C103.166 61.9199 102.91 62.082 102.633 62.2891C102.355 62.4922 102.059 62.7539 101.742 63.0742L101.033 62.2129C101.408 61.8613 101.768 61.5742 102.111 61.3516C102.455 61.1289 102.777 60.9551 103.078 60.8301C103.383 60.7012 103.664 60.6133 103.922 60.5664C104.184 60.5195 104.418 60.4961 104.625 60.4961C104.984 60.4961 105.305 60.5586 105.586 60.6836C105.867 60.8047 106.113 60.9727 106.324 61.1875C106.539 61.3984 106.719 61.6484 106.863 61.9375C107.012 62.2227 107.133 62.5312 107.227 62.8633C107.32 63.1914 107.387 63.5332 107.426 63.8887C107.469 64.2441 107.49 64.5977 107.49 64.9492C107.49 65.3242 107.469 65.7266 107.426 66.1562C107.383 66.5859 107.316 67.0547 107.227 67.5625L106.078 67.3691ZM106.242 65.2363C106.25 65.041 106.256 64.8477 106.26 64.6562C106.264 64.4648 106.254 64.2656 106.23 64.0586C106.039 64 105.838 63.9531 105.627 63.918C105.416 63.8828 105.205 63.8652 104.994 63.8652C104.643 63.8652 104.301 63.9062 103.969 63.9883C103.641 64.0703 103.357 64.1895 103.119 64.3457C102.881 64.502 102.701 64.6934 102.58 64.9199C102.463 65.1465 102.439 65.4043 102.51 65.6934C102.564 65.9277 102.67 66.0918 102.826 66.1855C102.986 66.2793 103.178 66.3262 103.4 66.3262C103.627 66.3262 103.871 66.2891 104.133 66.2148C104.398 66.1367 104.66 66.043 104.918 65.9336C105.18 65.8203 105.426 65.7012 105.656 65.5762C105.887 65.4512 106.082 65.3379 106.242 65.2363Z"/><path fill="#333" d="M112.324 67.4336C112.301 66.7617 112.279 66.1543 112.26 65.6113C112.24 65.0645 112.223 64.5762 112.207 64.1465C112.191 63.7168 112.178 63.3379 112.166 63.0098C112.158 62.6816 112.15 62.3984 112.143 62.1602C112.127 61.6016 112.115 61.1875 112.107 60.918L113.443 60.8945L113.467 62.582C113.596 62.3594 113.742 62.1504 113.906 61.9551C114.07 61.7559 114.248 61.5801 114.439 61.4277C114.631 61.2754 114.834 61.1523 115.049 61.0586C115.268 60.9648 115.496 60.9102 115.734 60.8945C116.031 60.875 116.289 60.9004 116.508 60.9707C116.73 61.041 116.92 61.1387 117.076 61.2637C117.232 61.3887 117.361 61.5371 117.463 61.709C117.564 61.877 117.645 62.0527 117.703 62.2363C117.762 62.416 117.803 62.5957 117.826 62.7754C117.854 62.9551 117.871 63.1191 117.879 63.2676C117.902 63.9395 117.908 64.6152 117.896 65.2949C117.885 65.9746 117.871 66.6797 117.855 67.4102L116.654 67.3691C116.686 66.7402 116.713 66.1113 116.736 65.4824C116.764 64.8535 116.762 64.2188 116.73 63.5781C116.73 63.5078 116.725 63.418 116.713 63.3086C116.705 63.1953 116.684 63.0762 116.648 62.9512C116.617 62.8262 116.572 62.7031 116.514 62.582C116.455 62.457 116.379 62.3496 116.285 62.2598C116.191 62.166 116.076 62.0957 115.939 62.0488C115.807 62.002 115.65 61.9922 115.471 62.0195C115.162 62.0664 114.848 62.293 114.527 62.6992C114.211 63.1016 113.869 63.6914 113.502 64.4688C113.518 65.0977 113.529 65.5996 113.537 65.9746C113.549 66.3457 113.559 66.627 113.566 66.8184C113.574 67.0449 113.58 67.1973 113.584 67.2754L112.324 67.4336Z"/><path fill="#333" d="M125.455 64.1582C125.455 64.6504 125.373 65.1055 125.209 65.5234C125.045 65.9414 124.82 66.3047 124.535 66.6133C124.25 66.9219 123.916 67.1621 123.533 67.334C123.15 67.5098 122.742 67.5977 122.309 67.5977C121.875 67.5977 121.469 67.5156 121.09 67.3516C120.711 67.1875 120.379 66.9551 120.094 66.6543C119.812 66.3496 119.59 65.9863 119.426 65.5645C119.262 65.1426 119.18 64.6738 119.18 64.1582C119.18 63.6387 119.262 63.168 119.426 62.7461C119.59 62.3203 119.812 61.957 120.094 61.6562C120.379 61.3555 120.711 61.123 121.09 60.959C121.469 60.7949 121.875 60.7129 122.309 60.7129C122.742 60.7129 123.15 60.8008 123.533 60.9766C123.916 61.1484 124.25 61.3887 124.535 61.6973C124.82 62.002 125.045 62.3652 125.209 62.7871C125.373 63.2051 125.455 63.6621 125.455 64.1582ZM124.219 64.1465C124.219 63.8652 124.184 63.582 124.113 63.2969C124.043 63.0078 123.932 62.75 123.779 62.5234C123.627 62.293 123.43 62.1055 123.188 61.9609C122.945 61.8164 122.652 61.7441 122.309 61.7441C121.977 61.7441 121.691 61.8164 121.453 61.9609C121.215 62.1055 121.02 62.293 120.867 62.5234C120.715 62.75 120.604 63.0078 120.533 63.2969C120.463 63.582 120.428 63.8652 120.428 64.1465C120.428 64.4277 120.465 64.7109 120.539 64.9961C120.617 65.2812 120.734 65.5391 120.891 65.7695C121.047 65.9961 121.242 66.1816 121.477 66.3262C121.715 66.4707 121.992 66.543 122.309 66.543C122.641 66.543 122.926 66.4707 123.164 66.3262C123.406 66.1816 123.605 65.9961 123.762 65.7695C123.918 65.5391 124.033 65.2812 124.107 64.9961C124.182 64.7109 124.219 64.4277 124.219 64.1465Z"/><path fill="#333" d="M131.18 58.2168L131.145 61.6738C131.371 61.4551 131.605 61.2871 131.848 61.1699C132.094 61.0488 132.32 60.9609 132.527 60.9062C132.77 60.8398 133.006 60.8027 133.236 60.7949C133.502 60.7949 133.766 60.834 134.027 60.9121C134.289 60.9863 134.537 61.0938 134.771 61.2344C135.006 61.3711 135.221 61.5371 135.416 61.7324C135.615 61.9277 135.785 62.1465 135.926 62.3887C136.07 62.627 136.18 62.8848 136.254 63.1621C136.328 63.4395 136.361 63.7305 136.354 64.0352C136.342 64.3711 136.291 64.6875 136.201 64.9844C136.111 65.2812 135.992 65.5547 135.844 65.8047C135.699 66.0508 135.529 66.2734 135.334 66.4727C135.139 66.6719 134.93 66.8398 134.707 66.9766C134.488 67.1133 134.26 67.2168 134.021 67.2871C133.783 67.3613 133.549 67.3984 133.318 67.3984C133.08 67.3906 132.834 67.3535 132.58 67.2871C132.361 67.2324 132.121 67.1445 131.859 67.0234C131.598 66.9023 131.34 66.7305 131.086 66.5078V67.2754L129.996 67.2988L129.896 58.2637L131.18 58.2168ZM135.094 64.1465C135.113 63.8535 135.076 63.5723 134.982 63.3027C134.893 63.0293 134.758 62.7891 134.578 62.582C134.402 62.375 134.188 62.2109 133.934 62.0898C133.684 61.9688 133.41 61.9102 133.113 61.9141C132.871 61.918 132.643 61.959 132.428 62.0371C132.217 62.1152 132.025 62.2207 131.854 62.3535C131.686 62.4863 131.539 62.6406 131.414 62.8164C131.289 62.9922 131.191 63.1797 131.121 63.3789L131.109 64.7793C131.18 65.0215 131.279 65.2363 131.408 65.4238C131.537 65.6074 131.686 65.7637 131.854 65.8926C132.025 66.0176 132.209 66.1133 132.404 66.1797C132.604 66.2422 132.805 66.2754 133.008 66.2793C133.293 66.2871 133.559 66.2363 133.805 66.127C134.055 66.0176 134.271 65.8672 134.455 65.6758C134.643 65.4805 134.791 65.252 134.9 64.9902C135.014 64.7285 135.078 64.4473 135.094 64.1465Z"/><path fill="#333" d="M142.166 67.4219L142.143 65.7402C142.014 65.9707 141.867 66.1895 141.703 66.3965C141.539 66.5996 141.361 66.7793 141.17 66.9355C140.979 67.0879 140.773 67.209 140.555 67.2988C140.34 67.3887 140.113 67.4297 139.875 67.4219C139.523 67.4102 139.221 67.3438 138.967 67.2227C138.717 67.1016 138.506 66.9414 138.334 66.7422C138.162 66.5391 138.023 66.3066 137.918 66.0449C137.816 65.7793 137.738 65.5 137.684 65.207C137.629 64.9141 137.592 64.6152 137.572 64.3105C137.557 64.002 137.549 63.7031 137.549 63.4141C137.549 63.0078 137.566 62.5977 137.602 62.1836C137.637 61.7656 137.688 61.3398 137.754 60.9062L138.955 60.9414C138.893 61.4258 138.85 61.8613 138.826 62.248C138.807 62.6348 138.797 62.9746 138.797 63.2676C138.797 63.4004 138.799 63.5684 138.803 63.7715C138.807 63.9746 138.82 64.1914 138.844 64.4219C138.871 64.6484 138.912 64.873 138.967 65.0957C139.021 65.3184 139.098 65.5176 139.195 65.6934C139.297 65.8652 139.424 65.998 139.576 66.0918C139.729 66.1855 139.916 66.2168 140.139 66.1855C140.439 66.1426 140.752 65.9355 141.076 65.5645C141.404 65.1934 141.748 64.623 142.107 63.8535C142.096 63.2324 142.084 62.7363 142.072 62.3652C142.064 61.9941 142.059 61.7109 142.055 61.5156C142.047 61.2852 142.041 61.125 142.037 61.0352L143.297 60.8945C143.32 61.5664 143.34 62.1738 143.355 62.7168C143.375 63.2559 143.393 63.7422 143.408 64.1758C143.424 64.6055 143.436 64.9844 143.443 65.3125C143.455 65.6367 143.465 65.918 143.473 66.1562C143.488 66.7148 143.498 67.1289 143.502 67.3984L142.166 67.4219Z"/><path fill="#333" d="M150.545 65.7168C150.545 66.0879 150.469 66.4004 150.316 66.6543C150.168 66.9043 149.967 67.1074 149.713 67.2637C149.463 67.4238 149.174 67.541 148.846 67.6152C148.521 67.6934 148.184 67.7402 147.832 67.7559C147.473 67.752 147.109 67.7148 146.742 67.6445C146.586 67.6172 146.42 67.5781 146.244 67.5273C146.072 67.4805 145.896 67.4219 145.717 67.3516C145.537 67.2812 145.357 67.1973 145.178 67.0996C144.998 67.002 144.826 66.8887 144.662 66.7598L145.23 65.8691C145.445 65.9824 145.664 66.0918 145.887 66.1973C146.113 66.3027 146.344 66.3965 146.578 66.4785C146.812 66.5566 147.053 66.6191 147.299 66.666C147.545 66.7129 147.799 66.7363 148.061 66.7363C148.275 66.7363 148.457 66.7168 148.605 66.6777C148.754 66.6348 148.875 66.584 148.969 66.5254C149.066 66.4629 149.141 66.3945 149.191 66.3203C149.246 66.2422 149.285 66.168 149.309 66.0977C149.328 66.0352 149.336 65.9668 149.332 65.8926C149.328 65.8145 149.307 65.7363 149.268 65.6582C149.232 65.5801 149.176 65.5039 149.098 65.4297C149.023 65.3516 148.924 65.2832 148.799 65.2246C148.674 65.1621 148.521 65.1113 148.342 65.0723C148.162 65.0332 147.949 65.0078 147.703 64.9961C147.352 64.9805 147.012 64.9453 146.684 64.8906C146.359 64.832 146.068 64.7422 145.811 64.6211C145.557 64.5 145.346 64.3418 145.178 64.1465C145.014 63.9473 144.914 63.6992 144.879 63.4023C144.852 63.1211 144.869 62.8652 144.932 62.6348C144.998 62.4004 145.096 62.1914 145.225 62.0078C145.357 61.8242 145.52 61.6641 145.711 61.5273C145.902 61.3867 146.111 61.2715 146.338 61.1816C146.564 61.0879 146.803 61.0195 147.053 60.9766C147.307 60.9297 147.562 60.9062 147.82 60.9062C147.973 60.9062 148.152 60.9141 148.359 60.9297C148.566 60.9453 148.783 60.9766 149.01 61.0234C149.236 61.0703 149.465 61.1387 149.695 61.2285C149.926 61.3145 150.141 61.4297 150.34 61.5742L149.936 62.6465C149.678 62.5098 149.432 62.4043 149.197 62.3301C148.967 62.252 148.762 62.1914 148.582 62.1484C148.371 62.1016 148.174 62.0703 147.99 62.0547C147.377 62.0195 146.898 62.084 146.555 62.248C146.215 62.4121 146.045 62.6602 146.045 62.9922C146.045 63.2266 146.109 63.3984 146.238 63.5078C146.367 63.6133 146.543 63.6895 146.766 63.7363C146.988 63.7832 147.248 63.8145 147.545 63.8301C147.842 63.8457 148.158 63.8789 148.494 63.9297C148.877 63.9883 149.199 64.0762 149.461 64.1934C149.723 64.3105 149.934 64.4473 150.094 64.6035C150.254 64.7598 150.369 64.9336 150.439 65.125C150.51 65.3125 150.545 65.5098 150.545 65.7168Z"/><path fill="#333" d="M154.359 58.5625L154.318 61.1816L156.592 61.1055L156.504 62.2012L154.307 62.2598L154.26 67.3691L153.023 67.3984L153.123 62.2949L151.096 62.3418L151.119 61.2637L153.146 61.2051L153.193 58.6387L154.359 58.5625Z"/><path fill="#333" d="M159.094 59.1895C159.094 59.3027 159.07 59.4102 159.023 59.5117C158.98 59.6133 158.92 59.7012 158.842 59.7754C158.768 59.8496 158.68 59.9082 158.578 59.9512C158.477 59.9941 158.367 60.0156 158.25 60.0156C158.137 60.0156 158.029 59.9941 157.928 59.9512C157.83 59.9082 157.742 59.8496 157.664 59.7754C157.59 59.7012 157.531 59.6133 157.488 59.5117C157.445 59.4102 157.424 59.3027 157.424 59.1895C157.424 59.0723 157.445 58.9629 157.488 58.8613C157.531 58.7598 157.59 58.6719 157.664 58.5977C157.742 58.5195 157.83 58.459 157.928 58.416C158.029 58.3691 158.137 58.3457 158.25 58.3457C158.367 58.3457 158.477 58.3691 158.578 58.416C158.68 58.459 158.768 58.5195 158.842 58.5977C158.92 58.6719 158.98 58.7598 159.023 58.8613C159.07 58.9629 159.094 59.0723 159.094 59.1895ZM158.818 61.252C158.807 61.8105 158.795 62.3242 158.783 62.793C158.775 63.2578 158.768 63.6816 158.76 64.0645C158.752 64.4473 158.744 64.791 158.736 65.0957C158.732 65.3965 158.729 65.6602 158.725 65.8867C158.713 66.4258 158.707 66.8496 158.707 67.1582H157.506C157.514 66.7363 157.523 66.2344 157.535 65.6523C157.543 65.1523 157.553 64.541 157.564 63.8184C157.58 63.0957 157.594 62.2559 157.605 61.2988L158.818 61.252Z"/><path fill="#333" d="M161.73 62.4648C161.855 62.3086 161.986 62.1484 162.123 61.9844C162.264 61.8164 162.414 61.6641 162.574 61.5273C162.738 61.3906 162.914 61.2793 163.102 61.1934C163.293 61.1035 163.504 61.0586 163.734 61.0586C163.898 61.0586 164.057 61.0859 164.209 61.1406C164.361 61.1914 164.5 61.2715 164.625 61.3809C164.75 61.4902 164.855 61.6309 164.941 61.8027C165.027 61.9707 165.082 62.1719 165.105 62.4062C165.227 62.2539 165.354 62.0996 165.486 61.9434C165.623 61.7832 165.77 61.6387 165.926 61.5098C166.086 61.377 166.258 61.2695 166.441 61.1875C166.625 61.1016 166.828 61.0586 167.051 61.0586C167.223 61.0586 167.391 61.0879 167.555 61.1465C167.719 61.2051 167.863 61.2969 167.988 61.4219C168.117 61.543 168.223 61.7012 168.305 61.8965C168.387 62.0879 168.432 62.3164 168.439 62.582C168.463 62.8672 168.484 63.2266 168.504 63.6602C168.523 64.0312 168.539 64.5039 168.551 65.0781C168.566 65.6484 168.574 66.334 168.574 67.1348L167.35 67.1934C167.35 66.4824 167.348 65.875 167.344 65.3711C167.34 64.8633 167.336 64.4434 167.332 64.1113C167.324 63.7246 167.318 63.4043 167.314 63.1504C167.303 62.8301 167.25 62.5918 167.156 62.4355C167.066 62.2793 166.947 62.2012 166.799 62.2012C166.701 62.2012 166.602 62.2305 166.5 62.2891C166.402 62.3477 166.303 62.4238 166.201 62.5176C166.104 62.6113 166.006 62.7188 165.908 62.8398C165.814 62.9609 165.725 63.084 165.639 63.209C165.553 63.334 165.471 63.4551 165.393 63.5723C165.314 63.6895 165.246 63.793 165.188 63.8828C165.195 64.0547 165.203 64.2441 165.211 64.4512C165.219 64.6582 165.225 64.8926 165.229 65.1543C165.236 65.416 165.24 65.709 165.24 66.0332C165.244 66.3574 165.246 66.7246 165.246 67.1348L164.109 67.1934C164.109 66.4824 164.102 65.875 164.086 65.3711C164.074 64.8633 164.061 64.4434 164.045 64.1113C164.029 63.7246 164.01 63.4043 163.986 63.1504C163.975 62.8301 163.922 62.5918 163.828 62.4355C163.738 62.2793 163.619 62.2012 163.471 62.2012C163.369 62.2012 163.266 62.2344 163.16 62.3008C163.055 62.3672 162.947 62.4531 162.838 62.5586C162.732 62.6641 162.629 62.7852 162.527 62.9219C162.426 63.0547 162.328 63.1895 162.234 63.3262C162.141 63.4629 162.053 63.5938 161.971 63.7188C161.889 63.8438 161.816 63.9531 161.754 64.0469L161.807 67.1348L160.641 67.1934L160.482 60.8945L161.707 60.7598L161.73 62.4648Z"/><path fill="#333" d="M173.045 66.4609C173.252 66.4609 173.457 66.4297 173.66 66.3672C173.863 66.3008 174.051 66.207 174.223 66.0859C174.395 65.9609 174.543 65.8066 174.668 65.623C174.797 65.4395 174.891 65.2266 174.949 64.9844L176.08 65.2129C175.971 65.5684 175.816 65.8906 175.617 66.1797C175.418 66.4688 175.186 66.7168 174.92 66.9238C174.654 67.1309 174.361 67.291 174.041 67.4043C173.725 67.5176 173.393 67.5742 173.045 67.5742C172.529 67.5742 172.072 67.4961 171.674 67.3398C171.275 67.1836 170.939 66.9629 170.666 66.6777C170.393 66.3926 170.184 66.0488 170.039 65.6465C169.898 65.2441 169.828 64.7949 169.828 64.2988C169.828 63.8105 169.91 63.3555 170.074 62.9336C170.242 62.5078 170.471 62.1387 170.76 61.8262C171.049 61.5137 171.389 61.2676 171.779 61.0879C172.17 60.9082 172.592 60.8184 173.045 60.8184C173.451 60.8184 173.834 60.8984 174.193 61.0586C174.553 61.2148 174.871 61.4336 175.148 61.7148C175.426 61.9922 175.654 62.3203 175.834 62.6992C176.014 63.0781 176.127 63.4883 176.174 63.9297L171.1 64.6855C171.127 64.9629 171.195 65.2129 171.305 65.4355C171.414 65.6543 171.553 65.8398 171.721 65.9922C171.893 66.1445 172.09 66.2617 172.312 66.3438C172.539 66.4219 172.783 66.4609 173.045 66.4609ZM174.662 63.1738L174.627 63.0625C174.479 62.6758 174.273 62.373 174.012 62.1543C173.754 61.9355 173.432 61.8262 173.045 61.8262C172.881 61.8262 172.701 61.8555 172.506 61.9141C172.311 61.9688 172.121 62.0645 171.938 62.2012C171.754 62.3379 171.588 62.5215 171.439 62.752C171.295 62.9785 171.193 63.2617 171.135 63.6016L174.662 63.1738Z"/><path fill="#333" d="M181.764 63.7012C181.76 63.5098 181.742 63.3438 181.711 63.2031C181.684 63.0625 181.646 62.9414 181.6 62.8398C181.557 62.7383 181.506 62.6543 181.447 62.5879C181.393 62.5215 181.336 62.4668 181.277 62.4238C181.141 62.3262 180.986 62.2793 180.814 62.2832C180.705 62.2988 180.588 62.3457 180.463 62.4238C180.342 62.498 180.217 62.5957 180.088 62.7168C179.959 62.834 179.828 62.9688 179.695 63.1211C179.566 63.2695 179.441 63.4238 179.32 63.584C179.199 63.7402 179.084 63.8965 178.975 64.0527C178.865 64.209 178.768 64.3516 178.682 64.4805C178.686 64.7734 178.691 65.0625 178.699 65.3477C178.707 65.6289 178.713 65.8926 178.717 66.1387C178.725 66.3809 178.732 66.6016 178.74 66.8008C178.752 66.9961 178.764 67.1543 178.775 67.2754L177.516 67.4336C177.492 66.7617 177.471 66.1543 177.451 65.6113C177.432 65.0645 177.414 64.5762 177.398 64.1465C177.383 63.7168 177.369 63.3379 177.357 63.0098C177.35 62.6816 177.342 62.3984 177.334 62.1602C177.318 61.6016 177.307 61.1875 177.299 60.918L178.635 60.8945C178.639 61.1328 178.641 61.377 178.641 61.627C178.645 61.873 178.648 62.0996 178.652 62.3066C178.656 62.5488 178.658 62.7852 178.658 63.0156C178.771 62.8359 178.908 62.6387 179.068 62.4238C179.232 62.209 179.416 62.0059 179.619 61.8145C179.826 61.623 180.051 61.457 180.293 61.3164C180.539 61.1719 180.801 61.082 181.078 61.0469C181.391 61.0312 181.676 61.0977 181.934 61.2461C182.043 61.3086 182.15 61.3926 182.256 61.498C182.365 61.5996 182.465 61.7324 182.555 61.8965C182.648 62.0566 182.727 62.25 182.789 62.4766C182.852 62.6992 182.895 62.9629 182.918 63.2676L181.764 63.7012Z"/><path fill="#333" d="M187.576 61.0586C187.619 60.6484 187.701 60.2539 187.822 59.875C187.947 59.4922 188.121 59.1543 188.344 58.8613C188.57 58.5684 188.854 58.334 189.193 58.1582C189.533 57.9824 189.941 57.8945 190.418 57.8945C190.676 57.8945 190.947 57.9395 191.232 58.0293C191.521 58.1152 191.807 58.2812 192.088 58.5273L191.508 59.5117C191.297 59.3633 191.092 59.2598 190.893 59.2012C190.693 59.1387 190.516 59.0996 190.359 59.084C190.176 59.0684 190.004 59.0742 189.844 59.1016C189.688 59.1406 189.549 59.2031 189.428 59.2891C189.307 59.3711 189.201 59.4883 189.111 59.6406C189.021 59.793 188.947 59.9863 188.889 60.2207C188.83 60.4512 188.783 60.7344 188.748 61.0703L191.232 61.082L191.104 62.2363L188.678 62.2012V62.7168C188.674 63.2324 188.672 63.7598 188.672 64.2988C188.672 64.5293 188.67 64.7754 188.666 65.0371C188.666 65.2949 188.666 65.5586 188.666 65.8281C188.666 66.0977 188.664 66.3711 188.66 66.6484C188.66 66.9219 188.658 67.1875 188.654 67.4453L187.441 67.4688C187.453 66.6172 187.463 65.8867 187.471 65.2773C187.479 64.668 187.486 64.1621 187.494 63.7598C187.502 63.291 187.508 62.9023 187.512 62.5938V62.1895L186.182 62.166V61.0469L187.576 61.0586Z"/><path fill="#333" d="M197.947 64.1582C197.947 64.6504 197.865 65.1055 197.701 65.5234C197.537 65.9414 197.312 66.3047 197.027 66.6133C196.742 66.9219 196.408 67.1621 196.025 67.334C195.643 67.5098 195.234 67.5977 194.801 67.5977C194.367 67.5977 193.961 67.5156 193.582 67.3516C193.203 67.1875 192.871 66.9551 192.586 66.6543C192.305 66.3496 192.082 65.9863 191.918 65.5645C191.754 65.1426 191.672 64.6738 191.672 64.1582C191.672 63.6387 191.754 63.168 191.918 62.7461C192.082 62.3203 192.305 61.957 192.586 61.6562C192.871 61.3555 193.203 61.123 193.582 60.959C193.961 60.7949 194.367 60.7129 194.801 60.7129C195.234 60.7129 195.643 60.8008 196.025 60.9766C196.408 61.1484 196.742 61.3887 197.027 61.6973C197.312 62.002 197.537 62.3652 197.701 62.7871C197.865 63.2051 197.947 63.6621 197.947 64.1582ZM196.711 64.1465C196.711 63.8652 196.676 63.582 196.605 63.2969C196.535 63.0078 196.424 62.75 196.271 62.5234C196.119 62.293 195.922 62.1055 195.68 61.9609C195.438 61.8164 195.145 61.7441 194.801 61.7441C194.469 61.7441 194.184 61.8164 193.945 61.9609C193.707 62.1055 193.512 62.293 193.359 62.5234C193.207 62.75 193.096 63.0078 193.025 63.2969C192.955 63.582 192.92 63.8652 192.92 64.1465C192.92 64.4277 192.957 64.7109 193.031 64.9961C193.109 65.2812 193.227 65.5391 193.383 65.7695C193.539 65.9961 193.734 66.1816 193.969 66.3262C194.207 66.4707 194.484 66.543 194.801 66.543C195.133 66.543 195.418 66.4707 195.656 66.3262C195.898 66.1816 196.098 65.9961 196.254 65.7695C196.41 65.5391 196.525 65.2812 196.6 64.9961C196.674 64.7109 196.711 64.4277 196.711 64.1465Z"/><path fill="#333" d="M203.666 63.7012C203.662 63.5098 203.645 63.3438 203.613 63.2031C203.586 63.0625 203.549 62.9414 203.502 62.8398C203.459 62.7383 203.408 62.6543 203.35 62.5879C203.295 62.5215 203.238 62.4668 203.18 62.4238C203.043 62.3262 202.889 62.2793 202.717 62.2832C202.607 62.2988 202.49 62.3457 202.365 62.4238C202.244 62.498 202.119 62.5957 201.99 62.7168C201.861 62.834 201.73 62.9688 201.598 63.1211C201.469 63.2695 201.344 63.4238 201.223 63.584C201.102 63.7402 200.986 63.8965 200.877 64.0527C200.768 64.209 200.67 64.3516 200.584 64.4805C200.588 64.7734 200.594 65.0625 200.602 65.3477C200.609 65.6289 200.615 65.8926 200.619 66.1387C200.627 66.3809 200.635 66.6016 200.643 66.8008C200.654 66.9961 200.666 67.1543 200.678 67.2754L199.418 67.4336C199.395 66.7617 199.373 66.1543 199.354 65.6113C199.334 65.0645 199.316 64.5762 199.301 64.1465C199.285 63.7168 199.271 63.3379 199.26 63.0098C199.252 62.6816 199.244 62.3984 199.236 62.1602C199.221 61.6016 199.209 61.1875 199.201 60.918L200.537 60.8945C200.541 61.1328 200.543 61.377 200.543 61.627C200.547 61.873 200.551 62.0996 200.555 62.3066C200.559 62.5488 200.561 62.7852 200.561 63.0156C200.674 62.8359 200.811 62.6387 200.971 62.4238C201.135 62.209 201.318 62.0059 201.521 61.8145C201.729 61.623 201.953 61.457 202.195 61.3164C202.441 61.1719 202.703 61.082 202.98 61.0469C203.293 61.0312 203.578 61.0977 203.836 61.2461C203.945 61.3086 204.053 61.3926 204.158 61.498C204.268 61.5996 204.367 61.7324 204.457 61.8965C204.551 62.0566 204.629 62.25 204.691 62.4766C204.754 62.6992 204.797 62.9629 204.82 63.2676L203.666 63.7012Z"/><path fill="#333" d="M210.34 63.6426L214.775 58.5977L216.088 58.7676L213.34 61.9023L216.205 66.9531L214.828 67.1582L212.566 62.7754L210.375 65.2832L210.422 67.0234L209.115 67.0469L208.98 58.7441L210.217 58.6504L210.34 63.6426Z"/><path fill="#333" d="M219.967 66.4609C220.174 66.4609 220.379 66.4297 220.582 66.3672C220.785 66.3008 220.973 66.207 221.145 66.0859C221.316 65.9609 221.465 65.8066 221.59 65.623C221.719 65.4395 221.812 65.2266 221.871 64.9844L223.002 65.2129C222.893 65.5684 222.738 65.8906 222.539 66.1797C222.34 66.4688 222.107 66.7168 221.842 66.9238C221.576 67.1309 221.283 67.291 220.963 67.4043C220.646 67.5176 220.314 67.5742 219.967 67.5742C219.451 67.5742 218.994 67.4961 218.596 67.3398C218.197 67.1836 217.861 66.9629 217.588 66.6777C217.314 66.3926 217.105 66.0488 216.961 65.6465C216.82 65.2441 216.75 64.7949 216.75 64.2988C216.75 63.8105 216.832 63.3555 216.996 62.9336C217.164 62.5078 217.393 62.1387 217.682 61.8262C217.971 61.5137 218.311 61.2676 218.701 61.0879C219.092 60.9082 219.514 60.8184 219.967 60.8184C220.373 60.8184 220.756 60.8984 221.115 61.0586C221.475 61.2148 221.793 61.4336 222.07 61.7148C222.348 61.9922 222.576 62.3203 222.756 62.6992C222.936 63.0781 223.049 63.4883 223.096 63.9297L218.021 64.6855C218.049 64.9629 218.117 65.2129 218.227 65.4355C218.336 65.6543 218.475 65.8398 218.643 65.9922C218.814 66.1445 219.012 66.2617 219.234 66.3438C219.461 66.4219 219.705 66.4609 219.967 66.4609ZM221.584 63.1738L221.549 63.0625C221.4 62.6758 221.195 62.373 220.934 62.1543C220.676 61.9355 220.354 61.8262 219.967 61.8262C219.803 61.8262 219.623 61.8555 219.428 61.9141C219.232 61.9688 219.043 62.0645 218.859 62.2012C218.676 62.3379 218.51 62.5215 218.361 62.752C218.217 62.9785 218.115 63.2617 218.057 63.6016L221.584 63.1738Z"/><path fill="#333" d="M225.855 59.1895C225.855 59.3027 225.832 59.4102 225.785 59.5117C225.742 59.6133 225.682 59.7012 225.604 59.7754C225.529 59.8496 225.441 59.9082 225.34 59.9512C225.238 59.9941 225.129 60.0156 225.012 60.0156C224.898 60.0156 224.791 59.9941 224.689 59.9512C224.592 59.9082 224.504 59.8496 224.426 59.7754C224.352 59.7012 224.293 59.6133 224.25 59.5117C224.207 59.4102 224.186 59.3027 224.186 59.1895C224.186 59.0723 224.207 58.9629 224.25 58.8613C224.293 58.7598 224.352 58.6719 224.426 58.5977C224.504 58.5195 224.592 58.459 224.689 58.416C224.791 58.3691 224.898 58.3457 225.012 58.3457C225.129 58.3457 225.238 58.3691 225.34 58.416C225.441 58.459 225.529 58.5195 225.604 58.5977C225.682 58.6719 225.742 58.7598 225.785 58.8613C225.832 58.9629 225.855 59.0723 225.855 59.1895ZM225.58 61.252C225.568 61.8105 225.557 62.3242 225.545 62.793C225.537 63.2578 225.529 63.6816 225.521 64.0645C225.514 64.4473 225.506 64.791 225.498 65.0957C225.494 65.3965 225.49 65.6602 225.486 65.8867C225.475 66.4258 225.469 66.8496 225.469 67.1582H224.268C224.275 66.7363 224.285 66.2344 224.297 65.6523C224.305 65.1523 224.314 64.541 224.326 63.8184C224.342 63.0957 224.355 62.2559 224.367 61.2988L225.58 61.252Z"/><path fill="#333" d="M233.15 64.1582C233.15 64.6504 233.068 65.1055 232.904 65.5234C232.74 65.9414 232.516 66.3047 232.23 66.6133C231.945 66.9219 231.611 67.1621 231.229 67.334C230.846 67.5098 230.438 67.5977 230.004 67.5977C229.57 67.5977 229.164 67.5156 228.785 67.3516C228.406 67.1875 228.074 66.9551 227.789 66.6543C227.508 66.3496 227.285 65.9863 227.121 65.5645C226.957 65.1426 226.875 64.6738 226.875 64.1582C226.875 63.6387 226.957 63.168 227.121 62.7461C227.285 62.3203 227.508 61.957 227.789 61.6562C228.074 61.3555 228.406 61.123 228.785 60.959C229.164 60.7949 229.57 60.7129 230.004 60.7129C230.438 60.7129 230.846 60.8008 231.229 60.9766C231.611 61.1484 231.945 61.3887 232.23 61.6973C232.516 62.002 232.74 62.3652 232.904 62.7871C233.068 63.2051 233.15 63.6621 233.15 64.1582ZM231.914 64.1465C231.914 63.8652 231.879 63.582 231.809 63.2969C231.738 63.0078 231.627 62.75 231.475 62.5234C231.322 62.293 231.125 62.1055 230.883 61.9609C230.641 61.8164 230.348 61.7441 230.004 61.7441C229.672 61.7441 229.387 61.8164 229.148 61.9609C228.91 62.1055 228.715 62.293 228.562 62.5234C228.41 62.75 228.299 63.0078 228.229 63.2969C228.158 63.582 228.123 63.8652 228.123 64.1465C228.123 64.4277 228.16 64.7109 228.234 64.9961C228.312 65.2812 228.43 65.5391 228.586 65.7695C228.742 65.9961 228.938 66.1816 229.172 66.3262C229.41 66.4707 229.688 66.543 230.004 66.543C230.336 66.543 230.621 66.4707 230.859 66.3262C231.102 66.1816 231.301 65.9961 231.457 65.7695C231.613 65.5391 231.729 65.2812 231.803 64.9961C231.877 64.7109 231.914 64.4277 231.914 64.1465Z"/><path fill="#333" d="M244.061 65.6172C244.021 65.8906 243.943 66.1348 243.826 66.3496C243.713 66.5605 243.57 66.7441 243.398 66.9004C243.227 67.0566 243.033 67.1875 242.818 67.293C242.607 67.4023 242.385 67.4902 242.15 67.5566C241.92 67.623 241.686 67.6699 241.447 67.6973C241.209 67.7285 240.98 67.7441 240.762 67.7441C240.461 67.7441 240.164 67.7109 239.871 67.6445C239.578 67.582 239.289 67.4922 239.004 67.375C238.723 67.2617 238.443 67.125 238.166 66.9648C237.893 66.8047 237.621 66.6289 237.352 66.4375L238.207 65.4297C238.512 65.6992 238.812 65.9121 239.109 66.0684C239.41 66.2207 239.68 66.3359 239.918 66.4141C240.195 66.5078 240.461 66.5703 240.715 66.6016C240.996 66.6172 241.258 66.5957 241.5 66.5371C241.742 66.4785 241.953 66.3945 242.133 66.2852C242.316 66.1719 242.463 66.0391 242.572 65.8867C242.682 65.7305 242.746 65.5664 242.766 65.3945C242.777 65.25 242.752 65.1191 242.689 65.002C242.627 64.8809 242.535 64.7715 242.414 64.6738C242.293 64.5723 242.15 64.4844 241.986 64.4102C241.822 64.332 241.646 64.2637 241.459 64.2051C241.275 64.1426 241.084 64.0898 240.885 64.0469C240.689 64 240.5 63.9609 240.316 63.9297C240.094 63.8906 239.859 63.8398 239.613 63.7773C239.367 63.7109 239.125 63.625 238.887 63.5195C238.648 63.4141 238.424 63.2832 238.213 63.127C238.002 62.9707 237.818 62.7832 237.662 62.5645C237.51 62.3418 237.393 62.084 237.311 61.791C237.232 61.498 237.207 61.1621 237.234 60.7832C237.258 60.4707 237.322 60.1895 237.428 59.9395C237.537 59.6855 237.676 59.459 237.844 59.2598C238.016 59.0605 238.211 58.8906 238.43 58.75C238.652 58.6055 238.889 58.4863 239.139 58.3926C239.389 58.2988 239.646 58.2324 239.912 58.1934C240.182 58.1504 240.449 58.1309 240.715 58.1348C241.082 58.1543 241.451 58.2109 241.822 58.3047C241.979 58.3438 242.143 58.3945 242.314 58.457C242.49 58.5156 242.666 58.5879 242.842 58.6738C243.018 58.7559 243.191 58.8555 243.363 58.9727C243.535 59.0859 243.699 59.2168 243.855 59.3652L243.199 60.4023C243.074 60.2617 242.941 60.1387 242.801 60.0332C242.66 59.9277 242.518 59.8359 242.373 59.7578C242.232 59.6797 242.092 59.6133 241.951 59.5586C241.811 59.5039 241.678 59.459 241.553 59.4238C241.252 59.3418 240.957 59.2949 240.668 59.2832C240.312 59.2832 239.996 59.3379 239.719 59.4473C239.441 59.5527 239.207 59.6914 239.016 59.8633C238.828 60.0312 238.684 60.2207 238.582 60.4316C238.484 60.6387 238.436 60.8438 238.436 61.0469C238.436 61.2461 238.494 61.4395 238.611 61.627C238.732 61.8145 238.898 61.9844 239.109 62.1367C239.32 62.2891 239.568 62.4199 239.854 62.5293C240.139 62.6348 240.445 62.709 240.773 62.752C241.059 62.7832 241.342 62.834 241.623 62.9043C241.908 62.9746 242.18 63.0645 242.438 63.1738C242.695 63.2832 242.932 63.416 243.146 63.5723C243.365 63.7246 243.549 63.9023 243.697 64.1055C243.846 64.3047 243.953 64.5312 244.02 64.7852C244.09 65.0352 244.104 65.3125 244.061 65.6172Z"/><path fill="#333" d="M250.225 63.8418L246.744 64.0117L246.791 67L245.666 67.0469L245.531 58.6973L251.895 58.5977L251.854 59.7168L246.686 59.7988L246.732 62.8574L250.201 62.7168L250.225 63.8418Z"/><path fill="#333" d="M260.496 65.4648C260.297 65.7539 260.066 66.0156 259.805 66.25C259.543 66.4805 259.258 66.6777 258.949 66.8418C258.645 67.0059 258.318 67.1328 257.971 67.2227C257.627 67.3125 257.27 67.3574 256.898 67.3574C256.488 67.3574 256.094 67.3027 255.715 67.1934C255.34 67.0879 254.988 66.9375 254.66 66.7422C254.332 66.543 254.033 66.3066 253.764 66.0332C253.494 65.7559 253.264 65.4492 253.072 65.1133C252.881 64.7773 252.732 64.416 252.627 64.0293C252.521 63.6426 252.469 63.2402 252.469 62.8223C252.469 62.4043 252.521 62.002 252.627 61.6152C252.732 61.2285 252.881 60.8672 253.072 60.5312C253.264 60.1953 253.494 59.8906 253.764 59.6172C254.033 59.3398 254.332 59.1035 254.66 58.9082C254.988 58.709 255.342 58.5566 255.721 58.4512C256.1 58.3418 256.492 58.2871 256.898 58.2871C257.246 58.2871 257.582 58.3262 257.906 58.4043C258.23 58.4824 258.539 58.5938 258.832 58.7383C259.125 58.8828 259.398 59.0586 259.652 59.2656C259.906 59.4727 260.135 59.7031 260.338 59.957L259.441 60.6895C259.137 60.3105 258.766 60.0098 258.328 59.7871C257.895 59.5645 257.418 59.4531 256.898 59.4531C256.445 59.4531 256.021 59.543 255.627 59.7227C255.232 59.8984 254.887 60.1387 254.59 60.4434C254.293 60.748 254.059 61.1055 253.887 61.5156C253.719 61.9219 253.635 62.3574 253.635 62.8223C253.635 63.2871 253.719 63.7246 253.887 64.1348C254.059 64.5449 254.293 64.9023 254.59 65.207C254.887 65.5117 255.232 65.7539 255.627 65.9336C256.021 66.1094 256.445 66.1973 256.898 66.1973C257.172 66.1973 257.436 66.1641 257.689 66.0977C257.943 66.0312 258.182 65.9375 258.404 65.8164C258.631 65.6953 258.84 65.5488 259.031 65.377C259.227 65.2051 259.398 65.0137 259.547 64.8027L260.496 65.4648Z"/><path fill="#333" d="M270.193 65.7168C270.193 66.0879 270.117 66.4004 269.965 66.6543C269.816 66.9043 269.615 67.1074 269.361 67.2637C269.111 67.4238 268.822 67.541 268.494 67.6152C268.17 67.6934 267.832 67.7402 267.48 67.7559C267.121 67.752 266.758 67.7148 266.391 67.6445C266.234 67.6172 266.068 67.5781 265.893 67.5273C265.721 67.4805 265.545 67.4219 265.365 67.3516C265.186 67.2812 265.006 67.1973 264.826 67.0996C264.646 67.002 264.475 66.8887 264.311 66.7598L264.879 65.8691C265.094 65.9824 265.312 66.0918 265.535 66.1973C265.762 66.3027 265.992 66.3965 266.227 66.4785C266.461 66.5566 266.701 66.6191 266.947 66.666C267.193 66.7129 267.447 66.7363 267.709 66.7363C267.924 66.7363 268.105 66.7168 268.254 66.6777C268.402 66.6348 268.523 66.584 268.617 66.5254C268.715 66.4629 268.789 66.3945 268.84 66.3203C268.895 66.2422 268.934 66.168 268.957 66.0977C268.977 66.0352 268.984 65.9668 268.98 65.8926C268.977 65.8145 268.955 65.7363 268.916 65.6582C268.881 65.5801 268.824 65.5039 268.746 65.4297C268.672 65.3516 268.572 65.2832 268.447 65.2246C268.322 65.1621 268.17 65.1113 267.99 65.0723C267.811 65.0332 267.598 65.0078 267.352 64.9961C267 64.9805 266.66 64.9453 266.332 64.8906C266.008 64.832 265.717 64.7422 265.459 64.6211C265.205 64.5 264.994 64.3418 264.826 64.1465C264.662 63.9473 264.562 63.6992 264.527 63.4023C264.5 63.1211 264.518 62.8652 264.58 62.6348C264.646 62.4004 264.744 62.1914 264.873 62.0078C265.006 61.8242 265.168 61.6641 265.359 61.5273C265.551 61.3867 265.76 61.2715 265.986 61.1816C266.213 61.0879 266.451 61.0195 266.701 60.9766C266.955 60.9297 267.211 60.9062 267.469 60.9062C267.621 60.9062 267.801 60.9141 268.008 60.9297C268.215 60.9453 268.432 60.9766 268.658 61.0234C268.885 61.0703 269.113 61.1387 269.344 61.2285C269.574 61.3145 269.789 61.4297 269.988 61.5742L269.584 62.6465C269.326 62.5098 269.08 62.4043 268.846 62.3301C268.615 62.252 268.41 62.1914 268.23 62.1484C268.02 62.1016 267.822 62.0703 267.639 62.0547C267.025 62.0195 266.547 62.084 266.203 62.248C265.863 62.4121 265.693 62.6602 265.693 62.9922C265.693 63.2266 265.758 63.3984 265.887 63.5078C266.016 63.6133 266.191 63.6895 266.414 63.7363C266.637 63.7832 266.896 63.8145 267.193 63.8301C267.49 63.8457 267.807 63.8789 268.143 63.9297C268.525 63.9883 268.848 64.0762 269.109 64.1934C269.371 64.3105 269.582 64.4473 269.742 64.6035C269.902 64.7598 270.018 64.9336 270.088 65.125C270.158 65.3125 270.193 65.5098 270.193 65.7168Z"/><path fill="#333" d="M274.008 58.5625L273.967 61.1816L276.24 61.1055L276.152 62.2012L273.955 62.2598L273.908 67.3691L272.672 67.3984L272.771 62.2949L270.744 62.3418L270.768 61.2637L272.795 61.2051L272.842 58.6387L274.008 58.5625Z"/><path fill="#333" d="M281.666 67.4219L281.643 65.7402C281.514 65.9707 281.367 66.1895 281.203 66.3965C281.039 66.5996 280.861 66.7793 280.67 66.9355C280.479 67.0879 280.273 67.209 280.055 67.2988C279.84 67.3887 279.613 67.4297 279.375 67.4219C279.023 67.4102 278.721 67.3438 278.467 67.2227C278.217 67.1016 278.006 66.9414 277.834 66.7422C277.662 66.5391 277.523 66.3066 277.418 66.0449C277.316 65.7793 277.238 65.5 277.184 65.207C277.129 64.9141 277.092 64.6152 277.072 64.3105C277.057 64.002 277.049 63.7031 277.049 63.4141C277.049 63.0078 277.066 62.5977 277.102 62.1836C277.137 61.7656 277.188 61.3398 277.254 60.9062L278.455 60.9414C278.393 61.4258 278.35 61.8613 278.326 62.248C278.307 62.6348 278.297 62.9746 278.297 63.2676C278.297 63.4004 278.299 63.5684 278.303 63.7715C278.307 63.9746 278.32 64.1914 278.344 64.4219C278.371 64.6484 278.412 64.873 278.467 65.0957C278.521 65.3184 278.598 65.5176 278.695 65.6934C278.797 65.8652 278.924 65.998 279.076 66.0918C279.229 66.1855 279.416 66.2168 279.639 66.1855C279.939 66.1426 280.252 65.9355 280.576 65.5645C280.904 65.1934 281.248 64.623 281.607 63.8535C281.596 63.2324 281.584 62.7363 281.572 62.3652C281.564 61.9941 281.559 61.7109 281.555 61.5156C281.547 61.2852 281.541 61.125 281.537 61.0352L282.797 60.8945C282.82 61.5664 282.84 62.1738 282.855 62.7168C282.875 63.2559 282.893 63.7422 282.908 64.1758C282.924 64.6055 282.936 64.9844 282.943 65.3125C282.955 65.6367 282.965 65.918 282.973 66.1562C282.988 66.7148 282.998 67.1289 283.002 67.3984L281.666 67.4219Z"/><path fill="#333" d="M290.848 58.5977L290.824 67.2402H289.623L289.635 66.4961C289.518 66.6055 289.396 66.7012 289.271 66.7832C289.15 66.8652 289.027 66.9375 288.902 67C288.781 67.0586 288.662 67.1074 288.545 67.1465C288.428 67.1895 288.316 67.2246 288.211 67.252C287.965 67.3145 287.721 67.3496 287.479 67.3574C287.025 67.3574 286.604 67.2773 286.213 67.1172C285.822 66.9609 285.482 66.7363 285.193 66.4434C284.904 66.1465 284.676 65.7871 284.508 65.3652C284.344 64.9434 284.262 64.4688 284.262 63.9414C284.262 63.4102 284.354 62.9375 284.537 62.5234C284.721 62.1055 284.961 61.7539 285.258 61.4688C285.559 61.1836 285.896 60.9668 286.271 60.8184C286.65 60.666 287.031 60.5898 287.414 60.5898C287.676 60.5938 287.941 60.6289 288.211 60.6953C288.441 60.75 288.689 60.8418 288.955 60.9707C289.221 61.0957 289.469 61.2773 289.699 61.5156L289.746 58.5156L290.848 58.5977ZM287.479 66.2793C287.721 66.2793 287.957 66.2402 288.188 66.1621C288.418 66.084 288.629 65.9746 288.82 65.834C289.016 65.6895 289.186 65.5176 289.33 65.3184C289.475 65.1191 289.584 64.9004 289.658 64.6621L289.67 63.4141C289.6 63.1641 289.49 62.9355 289.342 62.7285C289.193 62.5176 289.02 62.3379 288.82 62.1895C288.621 62.041 288.402 61.9258 288.164 61.8438C287.93 61.7617 287.689 61.7207 287.443 61.7207C287.154 61.7207 286.889 61.7812 286.646 61.9023C286.404 62.0195 286.195 62.1816 286.02 62.3887C285.844 62.5957 285.707 62.8398 285.609 63.1211C285.512 63.4023 285.463 63.707 285.463 64.0352C285.463 64.3633 285.512 64.6641 285.609 64.9375C285.711 65.2109 285.85 65.4473 286.025 65.6465C286.205 65.8457 286.418 66.002 286.664 66.1152C286.914 66.2246 287.186 66.2793 287.479 66.2793Z"/><path fill="#333" d="M295.4 66.4609C295.607 66.4609 295.812 66.4297 296.016 66.3672C296.219 66.3008 296.406 66.207 296.578 66.0859C296.75 65.9609 296.898 65.8066 297.023 65.623C297.152 65.4395 297.246 65.2266 297.305 64.9844L298.436 65.2129C298.326 65.5684 298.172 65.8906 297.973 66.1797C297.773 66.4688 297.541 66.7168 297.275 66.9238C297.01 67.1309 296.717 67.291 296.396 67.4043C296.08 67.5176 295.748 67.5742 295.4 67.5742C294.885 67.5742 294.428 67.4961 294.029 67.3398C293.631 67.1836 293.295 66.9629 293.021 66.6777C292.748 66.3926 292.539 66.0488 292.395 65.6465C292.254 65.2441 292.184 64.7949 292.184 64.2988C292.184 63.8105 292.266 63.3555 292.43 62.9336C292.598 62.5078 292.826 62.1387 293.115 61.8262C293.404 61.5137 293.744 61.2676 294.135 61.0879C294.525 60.9082 294.947 60.8184 295.4 60.8184C295.807 60.8184 296.189 60.8984 296.549 61.0586C296.908 61.2148 297.227 61.4336 297.504 61.7148C297.781 61.9922 298.01 62.3203 298.189 62.6992C298.369 63.0781 298.482 63.4883 298.529 63.9297L293.455 64.6855C293.482 64.9629 293.551 65.2129 293.66 65.4355C293.77 65.6543 293.908 65.8398 294.076 65.9922C294.248 66.1445 294.445 66.2617 294.668 66.3438C294.895 66.4219 295.139 66.4609 295.4 66.4609ZM297.018 63.1738L296.982 63.0625C296.834 62.6758 296.629 62.373 296.367 62.1543C296.109 61.9355 295.787 61.8262 295.4 61.8262C295.236 61.8262 295.057 61.8555 294.861 61.9141C294.666 61.9688 294.477 62.0645 294.293 62.2012C294.109 62.3379 293.943 62.5215 293.795 62.752C293.65 62.9785 293.549 63.2617 293.49 63.6016L297.018 63.1738Z"/><path fill="#333" d="M299.871 67.4336C299.848 66.7617 299.826 66.1543 299.807 65.6113C299.787 65.0645 299.77 64.5762 299.754 64.1465C299.738 63.7168 299.725 63.3379 299.713 63.0098C299.705 62.6816 299.697 62.3984 299.689 62.1602C299.674 61.6016 299.662 61.1875 299.654 60.918L300.99 60.8945L301.014 62.582C301.143 62.3594 301.289 62.1504 301.453 61.9551C301.617 61.7559 301.795 61.5801 301.986 61.4277C302.178 61.2754 302.381 61.1523 302.596 61.0586C302.814 60.9648 303.043 60.9102 303.281 60.8945C303.578 60.875 303.836 60.9004 304.055 60.9707C304.277 61.041 304.467 61.1387 304.623 61.2637C304.779 61.3887 304.908 61.5371 305.01 61.709C305.111 61.877 305.191 62.0527 305.25 62.2363C305.309 62.416 305.35 62.5957 305.373 62.7754C305.4 62.9551 305.418 63.1191 305.426 63.2676C305.449 63.9395 305.455 64.6152 305.443 65.2949C305.432 65.9746 305.418 66.6797 305.402 67.4102L304.201 67.3691C304.232 66.7402 304.26 66.1113 304.283 65.4824C304.311 64.8535 304.309 64.2188 304.277 63.5781C304.277 63.5078 304.271 63.418 304.26 63.3086C304.252 63.1953 304.23 63.0762 304.195 62.9512C304.164 62.8262 304.119 62.7031 304.061 62.582C304.002 62.457 303.926 62.3496 303.832 62.2598C303.738 62.166 303.623 62.0957 303.486 62.0488C303.354 62.002 303.197 61.9922 303.018 62.0195C302.709 62.0664 302.395 62.293 302.074 62.6992C301.758 63.1016 301.416 63.6914 301.049 64.4688C301.064 65.0977 301.076 65.5996 301.084 65.9746C301.096 66.3457 301.105 66.627 301.113 66.8184C301.121 67.0449 301.127 67.1973 301.131 67.2754L299.871 67.4336Z"/><path fill="#333" d="M309.668 58.5625L309.627 61.1816L311.9 61.1055L311.812 62.2012L309.615 62.2598L309.568 67.3691L308.332 67.3984L308.432 62.2949L306.404 62.3418L306.428 61.2637L308.455 61.2051L308.502 58.6387L309.668 58.5625Z"/><path fill="#333" d="M318.205 65.7168C318.205 66.0879 318.129 66.4004 317.977 66.6543C317.828 66.9043 317.627 67.1074 317.373 67.2637C317.123 67.4238 316.834 67.541 316.506 67.6152C316.182 67.6934 315.844 67.7402 315.492 67.7559C315.133 67.752 314.77 67.7148 314.402 67.6445C314.246 67.6172 314.08 67.5781 313.904 67.5273C313.732 67.4805 313.557 67.4219 313.377 67.3516C313.197 67.2812 313.018 67.1973 312.838 67.0996C312.658 67.002 312.486 66.8887 312.322 66.7598L312.891 65.8691C313.105 65.9824 313.324 66.0918 313.547 66.1973C313.773 66.3027 314.004 66.3965 314.238 66.4785C314.473 66.5566 314.713 66.6191 314.959 66.666C315.205 66.7129 315.459 66.7363 315.721 66.7363C315.936 66.7363 316.117 66.7168 316.266 66.6777C316.414 66.6348 316.535 66.584 316.629 66.5254C316.727 66.4629 316.801 66.3945 316.852 66.3203C316.906 66.2422 316.945 66.168 316.969 66.0977C316.988 66.0352 316.996 65.9668 316.992 65.8926C316.988 65.8145 316.967 65.7363 316.928 65.6582C316.893 65.5801 316.836 65.5039 316.758 65.4297C316.684 65.3516 316.584 65.2832 316.459 65.2246C316.334 65.1621 316.182 65.1113 316.002 65.0723C315.822 65.0332 315.609 65.0078 315.363 64.9961C315.012 64.9805 314.672 64.9453 314.344 64.8906C314.02 64.832 313.729 64.7422 313.471 64.6211C313.217 64.5 313.006 64.3418 312.838 64.1465C312.674 63.9473 312.574 63.6992 312.539 63.4023C312.512 63.1211 312.529 62.8652 312.592 62.6348C312.658 62.4004 312.756 62.1914 312.885 62.0078C313.018 61.8242 313.18 61.6641 313.371 61.5273C313.562 61.3867 313.771 61.2715 313.998 61.1816C314.225 61.0879 314.463 61.0195 314.713 60.9766C314.967 60.9297 315.223 60.9062 315.48 60.9062C315.633 60.9062 315.812 60.9141 316.02 60.9297C316.227 60.9453 316.443 60.9766 316.67 61.0234C316.896 61.0703 317.125 61.1387 317.355 61.2285C317.586 61.3145 317.801 61.4297 318 61.5742L317.596 62.6465C317.338 62.5098 317.092 62.4043 316.857 62.3301C316.627 62.252 316.422 62.1914 316.242 62.1484C316.031 62.1016 315.834 62.0703 315.65 62.0547C315.037 62.0195 314.559 62.084 314.215 62.248C313.875 62.4121 313.705 62.6602 313.705 62.9922C313.705 63.2266 313.77 63.3984 313.898 63.5078C314.027 63.6133 314.203 63.6895 314.426 63.7363C314.648 63.7832 314.908 63.8145 315.205 63.8301C315.502 63.8457 315.818 63.8789 316.154 63.9297C316.537 63.9883 316.859 64.0762 317.121 64.1934C317.383 64.3105 317.594 64.4473 317.754 64.6035C317.914 64.7598 318.029 64.9336 318.1 65.125C318.17 65.3125 318.205 65.5098 318.205 65.7168Z"/><mask id="path-4-outside-1" width="47" height="15" x="34" y="9" fill="#000" maskUnits="userSpaceOnUse"><rect width="47" height="15" x="34" y="9" fill="#fff"/><path d="M38.3806 14.6371L38.364 16.3001C38.1757 16.5027 37.9874 16.7105 37.7991 16.9237C37.6108 17.1369 37.428 17.3501 37.2508 17.5633C37.4169 17.1796 37.5665 16.7958 37.6994 16.4121C37.7658 16.2308 37.8323 16.0549 37.8987 15.8844C37.9652 15.7032 38.0317 15.5326 38.0981 15.3727L38.1314 15.3087L38.3806 14.6371ZM38.9289 23C38.9953 23 39.0452 22.9787 39.0784 22.936C39.1338 22.9041 39.1615 22.8508 39.1615 22.7761L39.1448 16.5879C39.3996 16.3321 39.6488 16.0869 39.8925 15.8524C40.1473 15.6072 40.402 15.3727 40.6568 15.1488C40.834 14.9783 41.0555 14.7864 41.3213 14.5732C41.5983 14.3493 41.8862 14.1415 42.1853 13.9496C42.6284 13.6511 42.9773 13.4592 43.232 13.3739C43.4868 13.278 43.6751 13.23 43.7969 13.23H43.8135C43.9243 13.23 44.0184 13.246 44.096 13.278C44.1735 13.3206 44.2344 13.3739 44.2787 13.4379C44.3341 13.5018 44.384 13.5765 44.4283 13.6617C44.4836 13.747 44.5169 13.859 44.528 13.9975C44.5501 14.1361 44.5612 14.296 44.5612 14.4772C44.5612 14.8397 44.5169 15.2821 44.4283 15.8044C44.3507 16.3161 44.2566 16.8864 44.1458 17.5154C44.0794 17.9098 44.024 18.2882 43.9797 18.6507C43.9464 19.0025 43.9298 19.3329 43.9298 19.6421C43.9298 20.2817 44.0129 20.7987 44.179 21.1931C44.2234 21.321 44.2787 21.433 44.3452 21.5289C44.4116 21.6142 44.4892 21.6995 44.5778 21.7847C44.7882 21.9553 45.0208 22.0459 45.2756 22.0566C45.2978 22.0566 45.3199 22.0619 45.3421 22.0726C45.3642 22.0726 45.3808 22.0726 45.3919 22.0726C45.6134 22.0726 45.8073 22.0299 45.9734 21.9447C46.1506 21.8487 46.2891 21.7581 46.3888 21.6728C46.7765 21.3424 47.0755 20.9106 47.286 20.3776C47.4964 19.8339 47.6792 19.2956 47.8342 18.7626C47.8453 18.7093 47.8342 18.6507 47.801 18.5867C47.7678 18.5441 47.7235 18.5121 47.6681 18.4908L47.5518 18.4588C47.5407 18.4588 47.5296 18.4588 47.5186 18.4588C47.5186 18.4588 47.513 18.4588 47.502 18.4588C47.3801 18.4588 47.3026 18.5121 47.2694 18.6187C47.1697 18.9705 47.0423 19.3063 46.8872 19.6261C46.7321 19.9459 46.5937 20.2124 46.4719 20.4256C46.3943 20.5642 46.3002 20.6974 46.1894 20.8253C46.0897 20.9533 45.9956 21.0545 45.907 21.1292C45.7519 21.2464 45.5802 21.305 45.3919 21.305C45.3808 21.305 45.3698 21.305 45.3587 21.305C45.3587 21.305 45.3531 21.305 45.3421 21.305C45.2535 21.2944 45.1759 21.2624 45.1095 21.2091C44.9876 21.1132 44.8935 20.9319 44.827 20.6654C44.7606 20.3883 44.7273 20.0472 44.7273 19.6421C44.7273 19.0451 44.7938 18.3788 44.9267 17.6433C45.0596 16.9397 45.1648 16.3374 45.2424 15.8364C45.3199 15.3247 45.3587 14.8717 45.3587 14.4772C45.3587 14.0189 45.2922 13.6404 45.1593 13.3419C44.9821 12.9902 44.7162 12.7503 44.3618 12.6224C44.1957 12.5584 44.0074 12.5264 43.7969 12.5264C43.4203 12.5371 43.0493 12.6277 42.6837 12.7983C42.3293 12.9688 42.0136 13.1394 41.7367 13.31C41.4155 13.5232 41.1164 13.7417 40.8395 13.9656C40.5737 14.1894 40.3355 14.392 40.1251 14.5732C39.959 14.7118 39.7928 14.861 39.6267 15.0209C39.4716 15.1702 39.311 15.3194 39.1448 15.4686V10.2558C39.1448 10.1919 39.1227 10.1386 39.0784 10.0959C39.0341 10.0533 38.9787 10.032 38.9122 10.032H38.5799C38.5246 10.032 38.4692 10.0533 38.4138 10.0959C38.3695 10.1386 38.3473 10.1919 38.3473 10.2558V13.0861L37.3339 13.3899C37.3117 13.4006 37.284 13.4112 37.2508 13.4219C37.2286 13.4219 37.2065 13.4272 37.1843 13.4379H37.1677C37.1234 13.4592 37.0736 13.4752 37.0182 13.4859C36.9739 13.4859 36.9296 13.4912 36.8853 13.5018C36.8742 13.5018 36.8576 13.5018 36.8354 13.5018C36.8133 13.5018 36.7967 13.5018 36.7856 13.5018C36.5087 13.5018 36.2982 13.4432 36.1542 13.326C36.0545 13.2513 35.9659 13.1341 35.8884 12.9742C35.8552 12.8782 35.7832 12.8303 35.6724 12.8303C35.6613 12.8303 35.6502 12.8303 35.6392 12.8303C35.6392 12.8303 35.6281 12.8303 35.6059 12.8303L35.5229 12.8622C35.4564 12.8836 35.4066 12.9209 35.3733 12.9742C35.3401 13.0168 35.3346 13.0754 35.3567 13.1501C35.4675 13.4272 35.6392 13.6617 35.8718 13.8536C36.1708 14.0882 36.5253 14.2054 36.9351 14.2054C37.0237 14.2054 37.1179 14.2001 37.2176 14.1894C37.3172 14.1788 37.4225 14.1628 37.5332 14.1415L37.5498 14.1255L37.8323 14.0455C37.7991 14.1415 37.7603 14.2427 37.716 14.3493C37.6717 14.4559 37.6274 14.5679 37.5831 14.6851L37.4668 14.941V14.9569C37.2895 15.4047 37.0902 15.895 36.8686 16.428C36.6582 16.9504 36.4422 17.4834 36.2207 18.0271C35.9992 18.5601 35.7832 19.0664 35.5727 19.5461C35.3733 20.0258 35.1906 20.4416 35.0244 20.7934C34.9691 20.9319 35.0078 21.0279 35.1407 21.0812L35.4398 21.2411C35.4619 21.2517 35.4952 21.2571 35.5395 21.2571C35.6392 21.2571 35.7112 21.2198 35.7555 21.1451C36.1431 20.4842 36.553 19.8446 36.9849 19.2263C37.4169 18.608 37.8766 18.0217 38.364 17.4674V22.7761C38.364 22.9254 38.4415 23 38.5966 23H38.9289Z"/><path d="M62.9701 18.5228C63.0366 18.5228 63.0919 18.5014 63.1362 18.4588C63.1805 18.4268 63.2027 18.3735 63.2027 18.2989C63.2027 16.039 62.4329 14.4026 60.8933 13.3899C60.86 13.3579 60.8157 13.3419 60.7604 13.3419C60.7493 13.3419 60.7382 13.3473 60.7271 13.3579C60.7271 13.3579 60.7216 13.3579 60.7105 13.3579C60.6551 13.3579 60.6053 13.3899 60.561 13.4539L60.5278 13.5178C60.4502 13.6138 60.4668 13.7097 60.5776 13.8057C61.1979 14.328 61.652 14.9516 61.94 15.6765C62.2391 16.3907 62.3941 17.2649 62.4052 18.2989C62.4052 18.3629 62.4274 18.4162 62.4717 18.4588C62.527 18.5014 62.5824 18.5228 62.6378 18.5228H62.9701ZM54.7293 22.0086C54.7404 22.0086 54.7459 22.0086 54.7459 22.0086C54.757 22.0086 54.768 22.0086 54.7791 22.0086L55.1779 21.9447C55.2776 21.9233 55.3385 21.87 55.3606 21.7847C55.3717 21.7314 55.3828 21.6835 55.3939 21.6408C55.4049 21.5875 55.416 21.5502 55.4271 21.5289C55.4271 21.5076 55.4548 21.401 55.5102 21.2091C55.5766 21.0066 55.6652 20.7614 55.776 20.4736C55.8868 20.1751 56.0197 19.8766 56.1747 19.5781C56.3298 19.2796 56.5015 19.0238 56.6898 18.8106C56.7784 18.704 56.7729 18.6027 56.6732 18.5068L56.6067 18.4428C56.5735 18.4002 56.5181 18.3788 56.4406 18.3788C56.4074 18.3788 56.3741 18.3842 56.3409 18.3948C56.3187 18.4055 56.2966 18.4108 56.2744 18.4108C56.0529 18.6453 55.8148 18.9332 55.56 19.2743C55.3053 19.6048 55.1059 19.9619 54.9619 20.3456C54.9397 20.4096 54.9176 20.4736 54.8954 20.5375C54.8733 20.6015 54.8511 20.6654 54.829 20.7294C54.6074 20.2604 54.397 19.754 54.1976 19.2103C54.0093 18.656 53.8321 18.1123 53.666 17.5793C53.5109 17.0357 53.378 16.5506 53.2672 16.1242C53.1454 15.6339 53.0346 15.1702 52.9349 14.7331C52.8463 14.296 52.7743 13.9336 52.7189 13.6458C52.6857 13.4539 52.6525 13.2886 52.6192 13.1501C52.5971 13.0008 52.5805 12.8782 52.5694 12.7823C52.5251 12.665 52.4475 12.6064 52.3368 12.6064C52.3257 12.6064 52.3146 12.6064 52.3036 12.6064L52.0211 12.6544C51.9547 12.6544 51.9048 12.681 51.8716 12.7343C51.8383 12.7876 51.8273 12.8462 51.8384 12.9102C51.8827 13.1554 51.9657 13.5871 52.0876 14.2054C52.2094 14.813 52.3645 15.5059 52.5528 16.2841C53.1841 18.8319 53.8432 20.6921 54.5299 21.8647C54.5742 21.9393 54.6407 21.9766 54.7293 21.9766V22.0086Z"/><path d="M71.6097 14.4293V16.0603C71.3992 16.2735 71.1943 16.492 70.9949 16.7159C70.7955 16.9397 70.5906 17.1743 70.3802 17.4194L70.2971 17.5154C70.4854 17.025 70.7014 16.4973 70.9451 15.9324C71.1998 15.3674 71.4214 14.8663 71.6097 14.4293ZM71.8423 22.968H72.1746C72.3296 22.968 72.4072 22.8934 72.4072 22.7442V16.3161C72.6508 16.1029 72.8945 15.895 73.1382 15.6925C73.3929 15.49 73.6477 15.3034 73.9025 15.1328C74.7443 14.5892 75.5695 14.3173 76.378 14.3173C77.1091 14.3173 77.7183 14.5359 78.2056 14.9729C78.7262 15.4313 79.0474 16.0816 79.1693 16.9237C79.2025 17.0836 79.2191 17.2542 79.2191 17.4354C79.208 17.9471 79.1194 18.4215 78.9533 18.8585C78.7871 19.2956 78.5435 19.6687 78.2222 19.9779C78.0672 20.1271 77.8456 20.303 77.5577 20.5055C77.2697 20.6974 76.9152 20.8733 76.4943 21.0332C76.0734 21.1931 75.5805 21.2944 75.0156 21.337C74.8716 21.3583 74.7996 21.4383 74.7996 21.5769L74.8163 21.6888C74.8163 21.7421 74.844 21.7954 74.8993 21.8487C74.9326 21.8807 74.9824 21.8967 75.0489 21.8967H75.0655C75.8298 21.8647 76.522 21.7208 77.1423 21.4649C77.7626 21.2091 78.2942 20.868 78.7373 20.4416C79.5791 19.6101 80 18.608 80 17.4354C80 17.3288 80 17.2276 80 17.1316C80 17.025 79.9889 16.9184 79.9668 16.8118C79.8117 15.7991 79.4074 14.9943 78.7539 14.3973C78.1004 13.8323 77.3084 13.5498 76.378 13.5498C75.4033 13.5498 74.4286 13.8696 73.4539 14.5092C73.0994 14.7331 72.7505 15.0049 72.4072 15.3247V10.2239C72.4072 10.0746 72.3241 10 72.1579 10H71.8423C71.7647 10 71.7093 10.0213 71.6761 10.064C71.6318 10.1066 71.6097 10.1599 71.6097 10.2239V13.0541L70.5962 13.3579C70.5297 13.3793 70.4743 13.3952 70.43 13.4059H70.4134C70.2694 13.4592 70.1587 13.4859 70.0811 13.4859C70.0811 13.4859 70.0756 13.4859 70.0645 13.4859C70.0423 13.4859 70.0257 13.4859 70.0147 13.4859C70.0036 13.4859 69.987 13.4859 69.9648 13.4859C69.7433 13.4859 69.555 13.4219 69.3999 13.294C69.3002 13.2194 69.2116 13.1021 69.1341 12.9422C69.1009 12.8462 69.0289 12.7983 68.9181 12.7983C68.907 12.7983 68.8959 12.7983 68.8849 12.7983C68.8849 12.7983 68.8793 12.7983 68.8683 12.7983L68.7852 12.8303C68.6966 12.8516 68.6467 12.8889 68.6357 12.9422C68.6024 12.9955 68.5969 13.0541 68.619 13.1181C68.7409 13.4166 68.907 13.6511 69.1175 13.8216C69.4276 14.0562 69.7876 14.1734 70.1974 14.1734C70.2971 14.1734 70.3968 14.1681 70.4965 14.1574C70.5962 14.1468 70.6959 14.1308 70.7955 14.1095L70.8122 14.0935L71.0946 14.0135C70.9063 14.4506 70.6848 14.9623 70.43 15.5486C70.1753 16.1349 69.9094 16.7425 69.6325 17.3715C69.3556 18.0004 69.0898 18.6027 68.835 19.1784C68.5803 19.7433 68.3587 20.223 68.1704 20.6175C68.1151 20.7454 68.1483 20.8413 68.2701 20.9053L68.4861 21.0172C68.5083 21.0279 68.5415 21.0332 68.5858 21.0332C68.6744 21.0332 68.7464 20.9959 68.8018 20.9213C69.6879 19.3969 70.6239 18.123 71.6097 17.0996V22.7442C71.6097 22.8081 71.6318 22.8614 71.6761 22.9041C71.7204 22.9467 71.7758 22.968 71.8423 22.968Z"/></mask><path fill="#333" d="M38.3806 14.6371L38.364 16.3001C38.1757 16.5027 37.9874 16.7105 37.7991 16.9237C37.6108 17.1369 37.428 17.3501 37.2508 17.5633C37.4169 17.1796 37.5665 16.7958 37.6994 16.4121C37.7658 16.2308 37.8323 16.0549 37.8987 15.8844C37.9652 15.7032 38.0317 15.5326 38.0981 15.3727L38.1314 15.3087L38.3806 14.6371ZM38.9289 23C38.9953 23 39.0452 22.9787 39.0784 22.936C39.1338 22.9041 39.1615 22.8508 39.1615 22.7761L39.1448 16.5879C39.3996 16.3321 39.6488 16.0869 39.8925 15.8524C40.1473 15.6072 40.402 15.3727 40.6568 15.1488C40.834 14.9783 41.0555 14.7864 41.3213 14.5732C41.5983 14.3493 41.8862 14.1415 42.1853 13.9496C42.6284 13.6511 42.9773 13.4592 43.232 13.3739C43.4868 13.278 43.6751 13.23 43.7969 13.23H43.8135C43.9243 13.23 44.0184 13.246 44.096 13.278C44.1735 13.3206 44.2344 13.3739 44.2787 13.4379C44.3341 13.5018 44.384 13.5765 44.4283 13.6617C44.4836 13.747 44.5169 13.859 44.528 13.9975C44.5501 14.1361 44.5612 14.296 44.5612 14.4772C44.5612 14.8397 44.5169 15.2821 44.4283 15.8044C44.3507 16.3161 44.2566 16.8864 44.1458 17.5154C44.0794 17.9098 44.024 18.2882 43.9797 18.6507C43.9464 19.0025 43.9298 19.3329 43.9298 19.6421C43.9298 20.2817 44.0129 20.7987 44.179 21.1931C44.2234 21.321 44.2787 21.433 44.3452 21.5289C44.4116 21.6142 44.4892 21.6995 44.5778 21.7847C44.7882 21.9553 45.0208 22.0459 45.2756 22.0566C45.2978 22.0566 45.3199 22.0619 45.3421 22.0726C45.3642 22.0726 45.3808 22.0726 45.3919 22.0726C45.6134 22.0726 45.8073 22.0299 45.9734 21.9447C46.1506 21.8487 46.2891 21.7581 46.3888 21.6728C46.7765 21.3424 47.0755 20.9106 47.286 20.3776C47.4964 19.8339 47.6792 19.2956 47.8342 18.7626C47.8453 18.7093 47.8342 18.6507 47.801 18.5867C47.7678 18.5441 47.7235 18.5121 47.6681 18.4908L47.5518 18.4588C47.5407 18.4588 47.5296 18.4588 47.5186 18.4588C47.5186 18.4588 47.513 18.4588 47.502 18.4588C47.3801 18.4588 47.3026 18.5121 47.2694 18.6187C47.1697 18.9705 47.0423 19.3063 46.8872 19.6261C46.7321 19.9459 46.5937 20.2124 46.4719 20.4256C46.3943 20.5642 46.3002 20.6974 46.1894 20.8253C46.0897 20.9533 45.9956 21.0545 45.907 21.1292C45.7519 21.2464 45.5802 21.305 45.3919 21.305C45.3808 21.305 45.3698 21.305 45.3587 21.305C45.3587 21.305 45.3531 21.305 45.3421 21.305C45.2535 21.2944 45.1759 21.2624 45.1095 21.2091C44.9876 21.1132 44.8935 20.9319 44.827 20.6654C44.7606 20.3883 44.7273 20.0472 44.7273 19.6421C44.7273 19.0451 44.7938 18.3788 44.9267 17.6433C45.0596 16.9397 45.1648 16.3374 45.2424 15.8364C45.3199 15.3247 45.3587 14.8717 45.3587 14.4772C45.3587 14.0189 45.2922 13.6404 45.1593 13.3419C44.9821 12.9902 44.7162 12.7503 44.3618 12.6224C44.1957 12.5584 44.0074 12.5264 43.7969 12.5264C43.4203 12.5371 43.0493 12.6277 42.6837 12.7983C42.3293 12.9688 42.0136 13.1394 41.7367 13.31C41.4155 13.5232 41.1164 13.7417 40.8395 13.9656C40.5737 14.1894 40.3355 14.392 40.1251 14.5732C39.959 14.7118 39.7928 14.861 39.6267 15.0209C39.4716 15.1702 39.311 15.3194 39.1448 15.4686V10.2558C39.1448 10.1919 39.1227 10.1386 39.0784 10.0959C39.0341 10.0533 38.9787 10.032 38.9122 10.032H38.5799C38.5246 10.032 38.4692 10.0533 38.4138 10.0959C38.3695 10.1386 38.3473 10.1919 38.3473 10.2558V13.0861L37.3339 13.3899C37.3117 13.4006 37.284 13.4112 37.2508 13.4219C37.2286 13.4219 37.2065 13.4272 37.1843 13.4379H37.1677C37.1234 13.4592 37.0736 13.4752 37.0182 13.4859C36.9739 13.4859 36.9296 13.4912 36.8853 13.5018C36.8742 13.5018 36.8576 13.5018 36.8354 13.5018C36.8133 13.5018 36.7967 13.5018 36.7856 13.5018C36.5087 13.5018 36.2982 13.4432 36.1542 13.326C36.0545 13.2513 35.9659 13.1341 35.8884 12.9742C35.8552 12.8782 35.7832 12.8303 35.6724 12.8303C35.6613 12.8303 35.6502 12.8303 35.6392 12.8303C35.6392 12.8303 35.6281 12.8303 35.6059 12.8303L35.5229 12.8622C35.4564 12.8836 35.4066 12.9209 35.3733 12.9742C35.3401 13.0168 35.3346 13.0754 35.3567 13.1501C35.4675 13.4272 35.6392 13.6617 35.8718 13.8536C36.1708 14.0882 36.5253 14.2054 36.9351 14.2054C37.0237 14.2054 37.1179 14.2001 37.2176 14.1894C37.3172 14.1788 37.4225 14.1628 37.5332 14.1415L37.5498 14.1255L37.8323 14.0455C37.7991 14.1415 37.7603 14.2427 37.716 14.3493C37.6717 14.4559 37.6274 14.5679 37.5831 14.6851L37.4668 14.941V14.9569C37.2895 15.4047 37.0902 15.895 36.8686 16.428C36.6582 16.9504 36.4422 17.4834 36.2207 18.0271C35.9992 18.5601 35.7832 19.0664 35.5727 19.5461C35.3733 20.0258 35.1906 20.4416 35.0244 20.7934C34.9691 20.9319 35.0078 21.0279 35.1407 21.0812L35.4398 21.2411C35.4619 21.2517 35.4952 21.2571 35.5395 21.2571C35.6392 21.2571 35.7112 21.2198 35.7555 21.1451C36.1431 20.4842 36.553 19.8446 36.9849 19.2263C37.4169 18.608 37.8766 18.0217 38.364 17.4674V22.7761C38.364 22.9254 38.4415 23 38.5966 23H38.9289Z"/><path fill="#333" d="M62.9701 18.5228C63.0366 18.5228 63.0919 18.5014 63.1362 18.4588C63.1805 18.4268 63.2027 18.3735 63.2027 18.2989C63.2027 16.039 62.4329 14.4026 60.8933 13.3899C60.86 13.3579 60.8157 13.3419 60.7604 13.3419C60.7493 13.3419 60.7382 13.3473 60.7271 13.3579C60.7271 13.3579 60.7216 13.3579 60.7105 13.3579C60.6551 13.3579 60.6053 13.3899 60.561 13.4539L60.5278 13.5178C60.4502 13.6138 60.4668 13.7097 60.5776 13.8057C61.1979 14.328 61.652 14.9516 61.94 15.6765C62.2391 16.3907 62.3941 17.2649 62.4052 18.2989C62.4052 18.3629 62.4274 18.4162 62.4717 18.4588C62.527 18.5014 62.5824 18.5228 62.6378 18.5228H62.9701ZM54.7293 22.0086C54.7404 22.0086 54.7459 22.0086 54.7459 22.0086C54.757 22.0086 54.768 22.0086 54.7791 22.0086L55.1779 21.9447C55.2776 21.9233 55.3385 21.87 55.3606 21.7847C55.3717 21.7314 55.3828 21.6835 55.3939 21.6408C55.4049 21.5875 55.416 21.5502 55.4271 21.5289C55.4271 21.5076 55.4548 21.401 55.5102 21.2091C55.5766 21.0066 55.6652 20.7614 55.776 20.4736C55.8868 20.1751 56.0197 19.8766 56.1747 19.5781C56.3298 19.2796 56.5015 19.0238 56.6898 18.8106C56.7784 18.704 56.7729 18.6027 56.6732 18.5068L56.6067 18.4428C56.5735 18.4002 56.5181 18.3788 56.4406 18.3788C56.4074 18.3788 56.3741 18.3842 56.3409 18.3948C56.3187 18.4055 56.2966 18.4108 56.2744 18.4108C56.0529 18.6453 55.8148 18.9332 55.56 19.2743C55.3053 19.6048 55.1059 19.9619 54.9619 20.3456C54.9397 20.4096 54.9176 20.4736 54.8954 20.5375C54.8733 20.6015 54.8511 20.6654 54.829 20.7294C54.6074 20.2604 54.397 19.754 54.1976 19.2103C54.0093 18.656 53.8321 18.1123 53.666 17.5793C53.5109 17.0357 53.378 16.5506 53.2672 16.1242C53.1454 15.6339 53.0346 15.1702 52.9349 14.7331C52.8463 14.296 52.7743 13.9336 52.7189 13.6458C52.6857 13.4539 52.6525 13.2886 52.6192 13.1501C52.5971 13.0008 52.5805 12.8782 52.5694 12.7823C52.5251 12.665 52.4475 12.6064 52.3368 12.6064C52.3257 12.6064 52.3146 12.6064 52.3036 12.6064L52.0211 12.6544C51.9547 12.6544 51.9048 12.681 51.8716 12.7343C51.8383 12.7876 51.8273 12.8462 51.8384 12.9102C51.8827 13.1554 51.9657 13.5871 52.0876 14.2054C52.2094 14.813 52.3645 15.5059 52.5528 16.2841C53.1841 18.8319 53.8432 20.6921 54.5299 21.8647C54.5742 21.9393 54.6407 21.9766 54.7293 21.9766V22.0086Z"/><path fill="#333" d="M71.6097 14.4293V16.0603C71.3992 16.2735 71.1943 16.492 70.9949 16.7159C70.7955 16.9397 70.5906 17.1743 70.3802 17.4194L70.2971 17.5154C70.4854 17.025 70.7014 16.4973 70.9451 15.9324C71.1998 15.3674 71.4214 14.8663 71.6097 14.4293ZM71.8423 22.968H72.1746C72.3296 22.968 72.4072 22.8934 72.4072 22.7442V16.3161C72.6508 16.1029 72.8945 15.895 73.1382 15.6925C73.3929 15.49 73.6477 15.3034 73.9025 15.1328C74.7443 14.5892 75.5695 14.3173 76.378 14.3173C77.1091 14.3173 77.7183 14.5359 78.2056 14.9729C78.7262 15.4313 79.0474 16.0816 79.1693 16.9237C79.2025 17.0836 79.2191 17.2542 79.2191 17.4354C79.208 17.9471 79.1194 18.4215 78.9533 18.8585C78.7871 19.2956 78.5435 19.6687 78.2222 19.9779C78.0672 20.1271 77.8456 20.303 77.5577 20.5055C77.2697 20.6974 76.9152 20.8733 76.4943 21.0332C76.0734 21.1931 75.5805 21.2944 75.0156 21.337C74.8716 21.3583 74.7996 21.4383 74.7996 21.5769L74.8163 21.6888C74.8163 21.7421 74.844 21.7954 74.8993 21.8487C74.9326 21.8807 74.9824 21.8967 75.0489 21.8967H75.0655C75.8298 21.8647 76.522 21.7208 77.1423 21.4649C77.7626 21.2091 78.2942 20.868 78.7373 20.4416C79.5791 19.6101 80 18.608 80 17.4354C80 17.3288 80 17.2276 80 17.1316C80 17.025 79.9889 16.9184 79.9668 16.8118C79.8117 15.7991 79.4074 14.9943 78.7539 14.3973C78.1004 13.8323 77.3084 13.5498 76.378 13.5498C75.4033 13.5498 74.4286 13.8696 73.4539 14.5092C73.0994 14.7331 72.7505 15.0049 72.4072 15.3247V10.2239C72.4072 10.0746 72.3241 10 72.1579 10H71.8423C71.7647 10 71.7093 10.0213 71.6761 10.064C71.6318 10.1066 71.6097 10.1599 71.6097 10.2239V13.0541L70.5962 13.3579C70.5297 13.3793 70.4743 13.3952 70.43 13.4059H70.4134C70.2694 13.4592 70.1587 13.4859 70.0811 13.4859C70.0811 13.4859 70.0756 13.4859 70.0645 13.4859C70.0423 13.4859 70.0257 13.4859 70.0147 13.4859C70.0036 13.4859 69.987 13.4859 69.9648 13.4859C69.7433 13.4859 69.555 13.4219 69.3999 13.294C69.3002 13.2194 69.2116 13.1021 69.1341 12.9422C69.1009 12.8462 69.0289 12.7983 68.9181 12.7983C68.907 12.7983 68.8959 12.7983 68.8849 12.7983C68.8849 12.7983 68.8793 12.7983 68.8683 12.7983L68.7852 12.8303C68.6966 12.8516 68.6467 12.8889 68.6357 12.9422C68.6024 12.9955 68.5969 13.0541 68.619 13.1181C68.7409 13.4166 68.907 13.6511 69.1175 13.8216C69.4276 14.0562 69.7876 14.1734 70.1974 14.1734C70.2971 14.1734 70.3968 14.1681 70.4965 14.1574C70.5962 14.1468 70.6959 14.1308 70.7955 14.1095L70.8122 14.0935L71.0946 14.0135C70.9063 14.4506 70.6848 14.9623 70.43 15.5486C70.1753 16.1349 69.9094 16.7425 69.6325 17.3715C69.3556 18.0004 69.0898 18.6027 68.835 19.1784C68.5803 19.7433 68.3587 20.223 68.1704 20.6175C68.1151 20.7454 68.1483 20.8413 68.2701 20.9053L68.4861 21.0172C68.5083 21.0279 68.5415 21.0332 68.5858 21.0332C68.6744 21.0332 68.7464 20.9959 68.8018 20.9213C69.6879 19.3969 70.6239 18.123 71.6097 17.0996V22.7442C71.6097 22.8081 71.6318 22.8614 71.6761 22.9041C71.7204 22.9467 71.7758 22.968 71.8423 22.968Z"/><path stroke="#333" stroke-width=".6" d="M38.3806 14.6371L38.364 16.3001C38.1757 16.5027 37.9874 16.7105 37.7991 16.9237C37.6108 17.1369 37.428 17.3501 37.2508 17.5633C37.4169 17.1796 37.5665 16.7958 37.6994 16.4121C37.7658 16.2308 37.8323 16.0549 37.8987 15.8844C37.9652 15.7032 38.0317 15.5326 38.0981 15.3727L38.1314 15.3087L38.3806 14.6371ZM38.9289 23C38.9953 23 39.0452 22.9787 39.0784 22.936C39.1338 22.9041 39.1615 22.8508 39.1615 22.7761L39.1448 16.5879C39.3996 16.3321 39.6488 16.0869 39.8925 15.8524C40.1473 15.6072 40.402 15.3727 40.6568 15.1488C40.834 14.9783 41.0555 14.7864 41.3213 14.5732C41.5983 14.3493 41.8862 14.1415 42.1853 13.9496C42.6284 13.6511 42.9773 13.4592 43.232 13.3739C43.4868 13.278 43.6751 13.23 43.7969 13.23H43.8135C43.9243 13.23 44.0184 13.246 44.096 13.278C44.1735 13.3206 44.2344 13.3739 44.2787 13.4379C44.3341 13.5018 44.384 13.5765 44.4283 13.6617C44.4836 13.747 44.5169 13.859 44.528 13.9975C44.5501 14.1361 44.5612 14.296 44.5612 14.4772C44.5612 14.8397 44.5169 15.2821 44.4283 15.8044C44.3507 16.3161 44.2566 16.8864 44.1458 17.5154C44.0794 17.9098 44.024 18.2882 43.9797 18.6507C43.9464 19.0025 43.9298 19.3329 43.9298 19.6421C43.9298 20.2817 44.0129 20.7987 44.179 21.1931C44.2234 21.321 44.2787 21.433 44.3452 21.5289C44.4116 21.6142 44.4892 21.6995 44.5778 21.7847C44.7882 21.9553 45.0208 22.0459 45.2756 22.0566C45.2978 22.0566 45.3199 22.0619 45.3421 22.0726C45.3642 22.0726 45.3808 22.0726 45.3919 22.0726C45.6134 22.0726 45.8073 22.0299 45.9734 21.9447C46.1506 21.8487 46.2891 21.7581 46.3888 21.6728C46.7765 21.3424 47.0755 20.9106 47.286 20.3776C47.4964 19.8339 47.6792 19.2956 47.8342 18.7626C47.8453 18.7093 47.8342 18.6507 47.801 18.5867C47.7678 18.5441 47.7235 18.5121 47.6681 18.4908L47.5518 18.4588C47.5407 18.4588 47.5296 18.4588 47.5186 18.4588C47.5186 18.4588 47.513 18.4588 47.502 18.4588C47.3801 18.4588 47.3026 18.5121 47.2694 18.6187C47.1697 18.9705 47.0423 19.3063 46.8872 19.6261C46.7321 19.9459 46.5937 20.2124 46.4719 20.4256C46.3943 20.5642 46.3002 20.6974 46.1894 20.8253C46.0897 20.9533 45.9956 21.0545 45.907 21.1292C45.7519 21.2464 45.5802 21.305 45.3919 21.305C45.3808 21.305 45.3698 21.305 45.3587 21.305C45.3587 21.305 45.3531 21.305 45.3421 21.305C45.2535 21.2944 45.1759 21.2624 45.1095 21.2091C44.9876 21.1132 44.8935 20.9319 44.827 20.6654C44.7606 20.3883 44.7273 20.0472 44.7273 19.6421C44.7273 19.0451 44.7938 18.3788 44.9267 17.6433C45.0596 16.9397 45.1648 16.3374 45.2424 15.8364C45.3199 15.3247 45.3587 14.8717 45.3587 14.4772C45.3587 14.0189 45.2922 13.6404 45.1593 13.3419C44.9821 12.9902 44.7162 12.7503 44.3618 12.6224C44.1957 12.5584 44.0074 12.5264 43.7969 12.5264C43.4203 12.5371 43.0493 12.6277 42.6837 12.7983C42.3293 12.9688 42.0136 13.1394 41.7367 13.31C41.4155 13.5232 41.1164 13.7417 40.8395 13.9656C40.5737 14.1894 40.3355 14.392 40.1251 14.5732C39.959 14.7118 39.7928 14.861 39.6267 15.0209C39.4716 15.1702 39.311 15.3194 39.1448 15.4686V10.2558C39.1448 10.1919 39.1227 10.1386 39.0784 10.0959C39.0341 10.0533 38.9787 10.032 38.9122 10.032H38.5799C38.5246 10.032 38.4692 10.0533 38.4138 10.0959C38.3695 10.1386 38.3473 10.1919 38.3473 10.2558V13.0861L37.3339 13.3899C37.3117 13.4006 37.284 13.4112 37.2508 13.4219C37.2286 13.4219 37.2065 13.4272 37.1843 13.4379H37.1677C37.1234 13.4592 37.0736 13.4752 37.0182 13.4859C36.9739 13.4859 36.9296 13.4912 36.8853 13.5018C36.8742 13.5018 36.8576 13.5018 36.8354 13.5018C36.8133 13.5018 36.7967 13.5018 36.7856 13.5018C36.5087 13.5018 36.2982 13.4432 36.1542 13.326C36.0545 13.2513 35.9659 13.1341 35.8884 12.9742C35.8552 12.8782 35.7832 12.8303 35.6724 12.8303C35.6613 12.8303 35.6502 12.8303 35.6392 12.8303C35.6392 12.8303 35.6281 12.8303 35.6059 12.8303L35.5229 12.8622C35.4564 12.8836 35.4066 12.9209 35.3733 12.9742C35.3401 13.0168 35.3346 13.0754 35.3567 13.1501C35.4675 13.4272 35.6392 13.6617 35.8718 13.8536C36.1708 14.0882 36.5253 14.2054 36.9351 14.2054C37.0237 14.2054 37.1179 14.2001 37.2176 14.1894C37.3172 14.1788 37.4225 14.1628 37.5332 14.1415L37.5498 14.1255L37.8323 14.0455C37.7991 14.1415 37.7603 14.2427 37.716 14.3493C37.6717 14.4559 37.6274 14.5679 37.5831 14.6851L37.4668 14.941V14.9569C37.2895 15.4047 37.0902 15.895 36.8686 16.428C36.6582 16.9504 36.4422 17.4834 36.2207 18.0271C35.9992 18.5601 35.7832 19.0664 35.5727 19.5461C35.3733 20.0258 35.1906 20.4416 35.0244 20.7934C34.9691 20.9319 35.0078 21.0279 35.1407 21.0812L35.4398 21.2411C35.4619 21.2517 35.4952 21.2571 35.5395 21.2571C35.6392 21.2571 35.7112 21.2198 35.7555 21.1451C36.1431 20.4842 36.553 19.8446 36.9849 19.2263C37.4169 18.608 37.8766 18.0217 38.364 17.4674V22.7761C38.364 22.9254 38.4415 23 38.5966 23H38.9289Z" mask="url(#path-4-outside-1)"/><path stroke="#333" stroke-width=".6" d="M62.9701 18.5228C63.0366 18.5228 63.0919 18.5014 63.1362 18.4588C63.1805 18.4268 63.2027 18.3735 63.2027 18.2989C63.2027 16.039 62.4329 14.4026 60.8933 13.3899C60.86 13.3579 60.8157 13.3419 60.7604 13.3419C60.7493 13.3419 60.7382 13.3473 60.7271 13.3579C60.7271 13.3579 60.7216 13.3579 60.7105 13.3579C60.6551 13.3579 60.6053 13.3899 60.561 13.4539L60.5278 13.5178C60.4502 13.6138 60.4668 13.7097 60.5776 13.8057C61.1979 14.328 61.652 14.9516 61.94 15.6765C62.2391 16.3907 62.3941 17.2649 62.4052 18.2989C62.4052 18.3629 62.4274 18.4162 62.4717 18.4588C62.527 18.5014 62.5824 18.5228 62.6378 18.5228H62.9701ZM54.7293 22.0086C54.7404 22.0086 54.7459 22.0086 54.7459 22.0086C54.757 22.0086 54.768 22.0086 54.7791 22.0086L55.1779 21.9447C55.2776 21.9233 55.3385 21.87 55.3606 21.7847C55.3717 21.7314 55.3828 21.6835 55.3939 21.6408C55.4049 21.5875 55.416 21.5502 55.4271 21.5289C55.4271 21.5076 55.4548 21.401 55.5102 21.2091C55.5766 21.0066 55.6652 20.7614 55.776 20.4736C55.8868 20.1751 56.0197 19.8766 56.1747 19.5781C56.3298 19.2796 56.5015 19.0238 56.6898 18.8106C56.7784 18.704 56.7729 18.6027 56.6732 18.5068L56.6067 18.4428C56.5735 18.4002 56.5181 18.3788 56.4406 18.3788C56.4074 18.3788 56.3741 18.3842 56.3409 18.3948C56.3187 18.4055 56.2966 18.4108 56.2744 18.4108C56.0529 18.6453 55.8148 18.9332 55.56 19.2743C55.3053 19.6048 55.1059 19.9619 54.9619 20.3456C54.9397 20.4096 54.9176 20.4736 54.8954 20.5375C54.8733 20.6015 54.8511 20.6654 54.829 20.7294C54.6074 20.2604 54.397 19.754 54.1976 19.2103C54.0093 18.656 53.8321 18.1123 53.666 17.5793C53.5109 17.0357 53.378 16.5506 53.2672 16.1242C53.1454 15.6339 53.0346 15.1702 52.9349 14.7331C52.8463 14.296 52.7743 13.9336 52.7189 13.6458C52.6857 13.4539 52.6525 13.2886 52.6192 13.1501C52.5971 13.0008 52.5805 12.8782 52.5694 12.7823C52.5251 12.665 52.4475 12.6064 52.3368 12.6064C52.3257 12.6064 52.3146 12.6064 52.3036 12.6064L52.0211 12.6544C51.9547 12.6544 51.9048 12.681 51.8716 12.7343C51.8383 12.7876 51.8273 12.8462 51.8384 12.9102C51.8827 13.1554 51.9657 13.5871 52.0876 14.2054C52.2094 14.813 52.3645 15.5059 52.5528 16.2841C53.1841 18.8319 53.8432 20.6921 54.5299 21.8647C54.5742 21.9393 54.6407 21.9766 54.7293 21.9766V22.0086Z" mask="url(#path-4-outside-1)"/><path stroke="#333" stroke-width=".6" d="M71.6097 14.4293V16.0603C71.3992 16.2735 71.1943 16.492 70.9949 16.7159C70.7955 16.9397 70.5906 17.1743 70.3802 17.4194L70.2971 17.5154C70.4854 17.025 70.7014 16.4973 70.9451 15.9324C71.1998 15.3674 71.4214 14.8663 71.6097 14.4293ZM71.8423 22.968H72.1746C72.3296 22.968 72.4072 22.8934 72.4072 22.7442V16.3161C72.6508 16.1029 72.8945 15.895 73.1382 15.6925C73.3929 15.49 73.6477 15.3034 73.9025 15.1328C74.7443 14.5892 75.5695 14.3173 76.378 14.3173C77.1091 14.3173 77.7183 14.5359 78.2056 14.9729C78.7262 15.4313 79.0474 16.0816 79.1693 16.9237C79.2025 17.0836 79.2191 17.2542 79.2191 17.4354C79.208 17.9471 79.1194 18.4215 78.9533 18.8585C78.7871 19.2956 78.5435 19.6687 78.2222 19.9779C78.0672 20.1271 77.8456 20.303 77.5577 20.5055C77.2697 20.6974 76.9152 20.8733 76.4943 21.0332C76.0734 21.1931 75.5805 21.2944 75.0156 21.337C74.8716 21.3583 74.7996 21.4383 74.7996 21.5769L74.8163 21.6888C74.8163 21.7421 74.844 21.7954 74.8993 21.8487C74.9326 21.8807 74.9824 21.8967 75.0489 21.8967H75.0655C75.8298 21.8647 76.522 21.7208 77.1423 21.4649C77.7626 21.2091 78.2942 20.868 78.7373 20.4416C79.5791 19.6101 80 18.608 80 17.4354C80 17.3288 80 17.2276 80 17.1316C80 17.025 79.9889 16.9184 79.9668 16.8118C79.8117 15.7991 79.4074 14.9943 78.7539 14.3973C78.1004 13.8323 77.3084 13.5498 76.378 13.5498C75.4033 13.5498 74.4286 13.8696 73.4539 14.5092C73.0994 14.7331 72.7505 15.0049 72.4072 15.3247V10.2239C72.4072 10.0746 72.3241 10 72.1579 10H71.8423C71.7647 10 71.7093 10.0213 71.6761 10.064C71.6318 10.1066 71.6097 10.1599 71.6097 10.2239V13.0541L70.5962 13.3579C70.5297 13.3793 70.4743 13.3952 70.43 13.4059H70.4134C70.2694 13.4592 70.1587 13.4859 70.0811 13.4859C70.0811 13.4859 70.0756 13.4859 70.0645 13.4859C70.0423 13.4859 70.0257 13.4859 70.0147 13.4859C70.0036 13.4859 69.987 13.4859 69.9648 13.4859C69.7433 13.4859 69.555 13.4219 69.3999 13.294C69.3002 13.2194 69.2116 13.1021 69.1341 12.9422C69.1009 12.8462 69.0289 12.7983 68.9181 12.7983C68.907 12.7983 68.8959 12.7983 68.8849 12.7983C68.8849 12.7983 68.8793 12.7983 68.8683 12.7983L68.7852 12.8303C68.6966 12.8516 68.6467 12.8889 68.6357 12.9422C68.6024 12.9955 68.5969 13.0541 68.619 13.1181C68.7409 13.4166 68.907 13.6511 69.1175 13.8216C69.4276 14.0562 69.7876 14.1734 70.1974 14.1734C70.2971 14.1734 70.3968 14.1681 70.4965 14.1574C70.5962 14.1468 70.6959 14.1308 70.7955 14.1095L70.8122 14.0935L71.0946 14.0135C70.9063 14.4506 70.6848 14.9623 70.43 15.5486C70.1753 16.1349 69.9094 16.7425 69.6325 17.3715C69.3556 18.0004 69.0898 18.6027 68.835 19.1784C68.5803 19.7433 68.3587 20.223 68.1704 20.6175C68.1151 20.7454 68.1483 20.8413 68.2701 20.9053L68.4861 21.0172C68.5083 21.0279 68.5415 21.0332 68.5858 21.0332C68.6744 21.0332 68.7464 20.9959 68.8018 20.9213C69.6879 19.3969 70.6239 18.123 71.6097 17.0996V22.7442C71.6097 22.8081 71.6318 22.8614 71.6761 22.9041C71.7204 22.9467 71.7758 22.968 71.8423 22.968Z" mask="url(#path-4-outside-1)"/></svg>