<svg xmlns="http://www.w3.org/2000/svg" width="40" height="50" fill="none" viewBox="0 0 40 50"><path fill="#379BFF" fill-rule="evenodd" d="M20 0C31.0769 0 40 9.07692 40 20.3077C40 26 36.9231 32 28.7692 40.1538L20 49.0769L11.0769 40.1538C3.07692 31.8462 0 25.8462 0 20.3077C0 9.07692 8.92308 0 20 0Z" clip-rule="evenodd"/><path fill="#fff" d="M31.7812 14.831H31.375V12.6444C31.375 10.6035 26.3375 9 20 9C13.6625 9 8.625 10.6035 8.625 12.6444V14.831H8.21875C7.5459 14.831 7 15.3203 7 15.9244V19.5688C7 20.1724 7.5459 20.6621 8.21875 20.6621H8.625V27.9509C8.625 28.7559 9.3527 29.4087 10.25 29.4087V30.8664C10.25 31.6714 10.9777 32.3242 11.875 32.3242H13.5C14.3973 32.3242 15.125 31.6714 15.125 30.8664V29.4087H24.875V30.8664C24.875 31.6714 25.6027 32.3242 26.5 32.3242H28.125C29.0223 32.3242 29.75 31.6714 29.75 30.8664V29.4087H30.075C30.8875 29.4087 31.375 28.8256 31.375 28.2425V20.6621H31.7812C32.4541 20.6621 33 20.1724 33 19.5688V15.9244C33 15.3203 32.4541 14.831 31.7812 14.831ZM12.6875 27.222C11.7902 27.222 11.0625 26.5692 11.0625 25.7643C11.0625 24.9593 11.7902 24.3065 12.6875 24.3065C13.5848 24.3065 14.3125 24.9593 14.3125 25.7643C14.3125 26.5692 13.5848 27.222 12.6875 27.222ZM13.5 22.1199C12.6027 22.1199 11.875 21.4671 11.875 20.6621V14.831C11.875 14.0261 12.6027 13.3733 13.5 13.3733H26.5C27.3973 13.3733 28.125 14.0261 28.125 14.831V20.6621C28.125 21.4671 27.3973 22.1199 26.5 22.1199H13.5ZM27.3125 27.222C26.4152 27.222 25.6875 26.5692 25.6875 25.7643C25.6875 24.9593 26.4152 24.3065 27.3125 24.3065C28.2098 24.3065 28.9375 24.9593 28.9375 25.7643C28.9375 26.5692 28.2098 27.222 27.3125 27.222Z"/></svg>